<svg xmlns="http://www.w3.org/2000/svg" width="243" height="167" fill="none" viewBox="0 0 243 167">
  <g filter="url(#a)">
    <path fill="#A942E9" d="M4.47 65.46C3.4 37.09 34.06 18.702 58.584 33.008l23.714 13.834a36.001 36.001 0 0 0 20.901 4.798l61.513-4.732a36 36 0 0 1 35.35 20.6l18.866 40.199C230.132 131.579 212.71 159 186.338 159H42.668c-19.355 0-35.245-15.302-35.975-34.642L4.47 65.461Z"/>
  </g>
  <path fill="#fff" d="M25.773 78.72c0-.213-.04-.427-.12-.64a2.975 2.975 0 0 1-.08-.72c0-.107.014-.253.04-.44a8.1 8.1 0 0 1 .2-.6c-.026-.533-.053-1.413-.08-2.64v-5.04c.027-.4.08-.76.16-1.08.107-.32.254-.587.44-.8.187-.213.467-.32.84-.32.4 0 .774.053 1.12.16.374.107.774.16 1.2.16h2.04c.774-.027 1.56-.04 2.36-.04h2.4a59.97 59.97 0 0 1 2.04-.04c.8 0 1.347.08 1.64.24.32.16.48.627.48 1.4 0 .453-.12.907-.36 1.36-.24.427-.533.64-.88.64h-4.6c-1.253-.027-2.32-.04-3.2-.04a68.604 68.604 0 0 0-2.04-.04c-.506-.027-.906-.04-1.2-.04 0 .293-.013.68-.04 1.16v1.52c0 .507-.013 1-.04 1.48v1.2l6.88-.08c.374 0 .694.147.96.44.267.267.4.733.4 1.4 0 .107-.026.267-.08.48a1.979 1.979 0 0 1-.2.6c-.08.187-.2.36-.36.52a.848.848 0 0 1-.56.2h-4.44c-.48-.027-.88-.04-1.2-.04h-.72c-.346 0-.56.013-.64.04l.12 5.92c1.6 0 3.227.053 4.88.16 1.654.08 3.36.12 5.12.12.534 0 .867.227 1 .68.16.453.24.947.24 1.48 0 .747-.2 1.253-.6 1.52-.4.267-.853.4-1.36.4-.506 0-.96-.027-1.36-.08-.4-.027-.826-.067-1.28-.12-.453-.027-1-.067-1.64-.12-.64-.027-1.453-.04-2.44-.04-.56 0-1.133.027-1.72.08-.586.08-1.213.12-1.88.12-.453 0-.84-.213-1.16-.64-.293-.453-.426-1.027-.4-1.72l.12-8.16Zm5.56-14.84a.717.717 0 0 1-.4-.2.996.996 0 0 1-.28-.36c-.053-.16-.08-.387-.08-.68 0-.453.134-.827.4-1.12.267-.293.56-.547.88-.76.427-.24.867-.533 1.32-.88.48-.347.947-.667 1.4-.96.454-.32.88-.587 1.28-.8.4-.213.747-.32 1.04-.32.374 0 .694.12.96.36.267.24.4.64.4 1.2 0 .587-.306 1.16-.92 1.72a11.366 11.366 0 0 1-2.12 1.44c-.773.4-1.546.733-2.32 1-.746.24-1.266.36-1.56.36ZM50.057 89.2c-.96 0-1.733-.227-2.32-.68-.586-.48-1.04-1.107-1.36-1.88-.32-.773-.546-1.653-.68-2.64-.106-.987-.173-2-.2-3.04-.026-1.067-.053-2.107-.08-3.12 0-1.013-.04-1.933-.12-2.76-.293 0-.6.013-.92.04-.32.027-.666.04-1.04.04-.106 0-.253-.04-.44-.12a3.948 3.948 0 0 1-.52-.32 3.143 3.143 0 0 1-.44-.56 1.681 1.681 0 0 1-.16-.76c0-.533.16-.987.48-1.36.32-.373.68-.56 1.08-.56.347 0 .694.013 1.04.04.347 0 .72.013 1.12.04 0-.347.014-.88.04-1.6.054-.72.134-1.427.24-2.12a8.34 8.34 0 0 1 .56-1.84c.24-.533.56-.8.96-.8.214 0 .44.16.68.48.267.293.4.693.4 1.2 0 1.2-.04 2.093-.12 2.68a16.249 16.249 0 0 1-.16 1.32l-.12.72c.96 0 1.92-.013 2.88-.04.987-.027 1.974-.04 2.96-.04.187 0 .347.067.48.2.134.133.24.307.32.52.08.187.134.4.16.64.054.213.08.413.08.6 0 .56-.146.987-.44 1.28-.266.267-.533.4-.8.4l-5.68-.08c0 .24-.013.56-.04.96v1.24c0 .453-.013.933-.04 1.44v1.4c0 .72.027 1.413.08 2.08.054.64.147 1.213.28 1.72.16.507.374.92.64 1.24.267.293.627.44 1.08.44.32 0 .64-.067.96-.2.347-.133.654-.28.92-.44.294-.187.534-.347.72-.48.187-.133.307-.2.36-.2.32 0 .534.107.64.32.107.187.16.467.16.84 0 .4-.133.827-.4 1.28a5.5 5.5 0 0 1-.92 1.2 5.53 5.53 0 0 1-1.2.92c-.426.24-.8.36-1.12.36Zm13.366.32c-1.36 0-2.453-.333-3.28-1a6.928 6.928 0 0 1-1.84-2.52 11.254 11.254 0 0 1-.84-3.12 31.687 31.687 0 0 1-.16-2.96c0-.827.027-1.733.08-2.72.08-.987.213-1.907.4-2.76.187-.88.427-1.613.72-2.2.32-.587.707-.88 1.16-.88.373 0 .627.12.76.36.16.24.24.56.24.96 0 .4-.053.867-.16 1.4-.08.507-.173 1.053-.28 1.64-.106.587-.213 1.2-.32 1.84-.08.64-.12 1.28-.12 1.92 0 .507.04 1.133.12 1.88.08.747.24 1.467.48 2.16a5.31 5.31 0 0 0 1.04 1.76c.453.48 1.067.72 1.84.72.614 0 1.16-.12 1.64-.36.507-.267.96-.587 1.36-.96.4-.4.747-.84 1.04-1.32.32-.48.627-.947.92-1.4.053-.853.094-1.573.12-2.16.053-.613.093-1.2.12-1.76l.08-5.12c0-.613.16-1.027.48-1.24.32-.213.6-.32.84-.32s.48.12.72.36.36.6.36 1.08l-.24 14.64c-.026.693-.133 1.16-.32 1.4-.186.24-.48.36-.88.36-.24 0-.453-.04-.64-.12a.729.729 0 0 1-.44-.36c-.106-.213-.186-.507-.24-.88-.053-.4-.08-.92-.08-1.56v-.72c0-.267.014-.547.04-.84a6.717 6.717 0 0 1-.76 1.92 6.036 6.036 0 0 1-1.16 1.52c-.427.427-.88.76-1.36 1-.48.24-.96.36-1.44.36Zm10.867-8.36c0-1.253.186-2.467.56-3.64.373-1.2.906-2.253 1.6-3.16a7.782 7.782 0 0 1 2.64-2.2c1.04-.56 2.226-.84 3.56-.84 1.12 0 2.106.307 2.96.92.853.613 1.333 1.427 1.44 2.44v-3.12c.026-.693.04-1.4.04-2.12v-2.16c.026-.693.04-1.307.04-1.84v-1.28c0-1.28.466-1.92 1.4-1.92.373 0 .626.187.76.56.16.373.24.773.24 1.2v1.12c0 .507-.014 1.053-.04 1.64v2.72a610.02 610.02 0 0 0-.12 4.84 309.412 309.412 0 0 1-.08 3.24c0 .853-.014 1.52-.04 2v1.6l-.04 3.16c0 .693-.027 1.347-.08 1.96a8.55 8.55 0 0 1-.2 1.56c-.107.427-.267.773-.48 1.04-.214.267-.494.4-.84.4-.294 0-.534-.213-.72-.64a14.51 14.51 0 0 1-.48-1.24c-.32.32-.72.6-1.2.84-.48.213-.974.4-1.48.56a15.43 15.43 0 0 1-1.52.32c-.48.08-.894.12-1.24.12-1.12 0-2.107-.187-2.96-.56A5.8 5.8 0 0 1 75.93 87c-.56-.72-.974-1.573-1.24-2.56-.267-.987-.4-2.08-.4-3.28Zm2.56-.12c0 1.547.44 2.76 1.32 3.64.88.853 1.96 1.28 3.24 1.28.773 0 1.466-.08 2.08-.24a7.875 7.875 0 0 0 1.56-.64c.426-.24.76-.493 1-.76.266-.267.426-.507.48-.72.133-.453.2-.933.2-1.44.026-.507.04-1 .04-1.48V79.6c0-.64-.12-1.24-.36-1.8a5.256 5.256 0 0 0-.88-1.56 4.279 4.279 0 0 0-1.32-1.08c-.48-.267-.987-.4-1.52-.4-.907 0-1.72.16-2.44.48a4.97 4.97 0 0 0-1.84 1.28 5.72 5.72 0 0 0-1.16 2 7.68 7.68 0 0 0-.4 2.52Zm18.59 2.08c.213.693.573 1.24 1.08 1.64.506.4 1.066.693 1.68.88a8.973 8.973 0 0 0 1.84.36c.613.027 1.146.04 1.6.04.453 0 .906-.067 1.36-.2.453-.133.88-.28 1.28-.44.426-.16.813-.307 1.16-.44.373-.133.68-.2.92-.2.906 0 1.36.587 1.36 1.76 0 .693-.32 1.227-.96 1.6-.614.373-1.347.653-2.2.84-.827.187-1.654.293-2.48.32-.8.053-1.387.08-1.76.08-.907 0-1.8-.2-2.68-.6a7.65 7.65 0 0 1-2.36-1.68 9.134 9.134 0 0 1-1.64-2.52c-.4-.96-.6-2-.6-3.12 0-1.547.186-2.96.56-4.24.4-1.28.96-2.387 1.68-3.32a7.287 7.287 0 0 1 2.68-2.16c1.066-.533 2.28-.8 3.64-.8.666 0 1.36.133 2.08.4.72.24 1.36.613 1.92 1.12.586.48 1.066 1.093 1.44 1.84.373.72.56 1.56.56 2.52 0 .613-.094 1.133-.28 1.56-.187.427-.44.693-.76.8l-11.12 3.96Zm-.16-2.76a34.7 34.7 0 0 0 2.52-.84l2.88-1.12c.96-.4 1.853-.773 2.68-1.12a72.707 72.707 0 0 1 2.08-.88c-.347-.747-.934-1.267-1.76-1.56-.8-.32-1.667-.48-2.6-.48-.374 0-.854.12-1.44.36-.587.213-1.187.56-1.8 1.04-.587.48-1.12 1.107-1.6 1.88-.48.747-.8 1.653-.96 2.72Zm24.518.8c0-1.253.186-2.467.56-3.64.373-1.2.906-2.253 1.6-3.16a7.782 7.782 0 0 1 2.64-2.2c1.04-.56 2.226-.84 3.56-.84 1.12 0 2.106.307 2.96.92.853.613 1.333 1.427 1.44 2.44v-3.12c.026-.693.04-1.4.04-2.12v-2.16c.026-.693.04-1.307.04-1.84v-1.28c0-1.28.466-1.92 1.4-1.92.373 0 .626.187.76.56.16.373.24.773.24 1.2v1.12c0 .507-.014 1.053-.04 1.64v2.72a549.519 549.519 0 0 0-.12 4.84 339.76 339.76 0 0 1-.08 3.24c0 .853-.014 1.52-.04 2v1.6l-.04 3.16c0 .693-.027 1.347-.08 1.96a8.639 8.639 0 0 1-.2 1.56c-.107.427-.267.773-.48 1.04-.214.267-.494.4-.84.4-.294 0-.534-.213-.72-.64a14.51 14.51 0 0 1-.48-1.24c-.32.32-.72.6-1.2.84-.48.213-.974.4-1.48.56a15.49 15.49 0 0 1-1.52.32c-.48.08-.894.12-1.24.12-1.12 0-2.107-.187-2.96-.56-.827-.4-1.52-.96-2.08-1.68s-.974-1.573-1.24-2.56c-.267-.987-.4-2.08-.4-3.28Zm2.56-.12c0 1.547.44 2.76 1.32 3.64.88.853 1.96 1.28 3.24 1.28.773 0 1.466-.08 2.079-.24a7.876 7.876 0 0 0 1.561-.64c.426-.24.76-.493 1-.76.266-.267.426-.507.48-.72.133-.453.2-.933.2-1.44.026-.507.04-1 .04-1.48V79.6c0-.64-.12-1.24-.36-1.8a5.278 5.278 0 0 0-.88-1.56 4.295 4.295 0 0 0-1.32-1.08c-.48-.267-.987-.4-1.52-.4-.907 0-1.72.16-2.44.48a4.97 4.97 0 0 0-1.84 1.28 5.705 5.705 0 0 0-1.16 2 7.673 7.673 0 0 0-.4 2.52Zm18.59 2.08c.213.693.573 1.24 1.08 1.64a5.06 5.06 0 0 0 1.68.88 8.96 8.96 0 0 0 1.84.36c.613.027 1.146.04 1.6.04.453 0 .906-.067 1.36-.2.453-.133.88-.28 1.28-.44.426-.16.813-.307 1.16-.44.373-.133.68-.2.92-.2.906 0 1.36.587 1.36 1.76 0 .693-.32 1.227-.96 1.6-.614.373-1.347.653-2.2.84-.827.187-1.654.293-2.48.32-.8.053-1.387.08-1.76.08-.907 0-1.8-.2-2.68-.6-.88-.4-1.667-.96-2.36-1.68a9.111 9.111 0 0 1-1.64-2.52c-.4-.96-.6-2-.6-3.12 0-1.547.186-2.96.56-4.24.4-1.28.96-2.387 1.68-3.32a7.285 7.285 0 0 1 2.68-2.16c1.066-.533 2.28-.8 3.64-.8.666 0 1.36.133 2.08.4.72.24 1.36.613 1.92 1.12.586.48 1.066 1.093 1.44 1.84.373.72.56 1.56.56 2.52 0 .613-.094 1.133-.28 1.56-.187.427-.44.693-.76.8l-11.12 3.96Zm-.16-2.76a34.927 34.927 0 0 0 2.52-.84l2.88-1.12c.96-.4 1.853-.773 2.68-1.12a72.707 72.707 0 0 1 2.08-.88c-.347-.747-.934-1.267-1.76-1.56-.8-.32-1.667-.48-2.6-.48-.374 0-.854.12-1.44.36-.587.213-1.187.56-1.8 1.04-.587.48-1.12 1.107-1.6 1.88-.48.747-.8 1.653-.96 2.72Zm26.317-15.96c0-.747.107-1.387.32-1.92.214-.533.56-.8 1.04-.8.347 0 .614.2.8.6.187.373.28.747.28 1.12l-.24 17.64v1.68c.027.56.08 1.067.16 1.52.08.427.187.773.32 1.04.16.267.36.4.6.4.16 0 .294-.04.4-.12.134-.107.254-.213.36-.32.107-.107.214-.2.32-.28a.69.69 0 0 1 .44-.16c.374 0 .627.187.76.56.16.373.24.76.24 1.16 0 .4-.093.76-.28 1.08-.186.293-.413.56-.68.8-.24.213-.506.387-.8.52-.293.107-.56.16-.8.16-1.253 0-2.146-.387-2.68-1.16-.533-.8-.786-1.92-.76-3.36l.2-20.16Zm7.212 17.72c0-1.307.226-2.6.68-3.88a11.805 11.805 0 0 1 1.88-3.48c.8-1.04 1.72-1.867 2.76-2.48 1.066-.64 2.2-.96 3.4-.96.906 0 1.76.213 2.56.64a6.891 6.891 0 0 1 2.12 1.68 7.83 7.83 0 0 1 1.4 2.32 6.77 6.77 0 0 1 .52 2.56c0 .453-.027.893-.08 1.32-.054.4-.12.813-.2 1.24-.054.4-.107.827-.16 1.28-.054.453-.08.96-.08 1.52 0 .747.106 1.267.32 1.56.213.293.52.44.92.44.24 0 .466-.133.68-.4.24-.267.453-.427.64-.48.693 0 1.04.507 1.04 1.52 0 .32-.067.64-.2.96-.134.32-.32.613-.56.88-.24.24-.52.453-.84.64a2.238 2.238 0 0 1-2.16-.08 4.487 4.487 0 0 1-.96-.8 4.663 4.663 0 0 1-.72-1.16 3.638 3.638 0 0 1-.28-1.4 15.227 15.227 0 0 1-2.72 2.68c-.987.773-2.08 1.16-3.28 1.16-.774 0-1.56-.187-2.36-.56a7.747 7.747 0 0 1-2.12-1.52 8.96 8.96 0 0 1-1.6-2.32c-.4-.907-.6-1.867-.6-2.88Zm2.48-.12c0 .587.133 1.12.4 1.6a4.5 4.5 0 0 0 1.12 1.24c.48.32 1 .573 1.56.76.586.187 1.16.28 1.72.28 1.173 0 2.106-.253 2.8-.76a5.82 5.82 0 0 0 1.64-1.96c.4-.8.68-1.653.84-2.56.16-.933.306-1.813.44-2.64 0-.293-.147-.613-.44-.96a4.453 4.453 0 0 0-1-1c-.4-.32-.84-.587-1.32-.8-.454-.213-.867-.32-1.24-.32-.987 0-1.88.213-2.68.64-.8.427-1.494.987-2.08 1.68-.56.667-1 1.427-1.32 2.28a7.702 7.702 0 0 0-.44 2.52ZM43.469 138.16c0-1.253.187-2.467.56-3.64.374-1.2.907-2.253 1.6-3.16a7.782 7.782 0 0 1 2.64-2.2c1.04-.56 2.227-.84 3.56-.84 1.12 0 2.107.307 2.96.92.854.613 1.334 1.427 1.44 2.44v-3.12c.027-.693.04-1.4.04-2.12v-2.16c.027-.693.04-1.307.04-1.84v-1.28c0-1.28.467-1.92 1.4-1.92.374 0 .627.187.76.56.16.373.24.773.24 1.2v1.12c0 .507-.013 1.053-.04 1.64v2.72a600.575 600.575 0 0 0-.12 4.84 311.776 311.776 0 0 1-.08 3.24c0 .853-.013 1.52-.04 2v1.6l-.04 3.16c0 .693-.026 1.347-.08 1.96a8.552 8.552 0 0 1-.2 1.56c-.106.427-.266.773-.48 1.04-.213.267-.493.4-.84.4-.293 0-.533-.213-.72-.64-.186-.427-.346-.84-.48-1.24-.32.32-.72.6-1.2.84-.48.213-.973.4-1.48.56-.506.133-1.013.24-1.52.32a7.7 7.7 0 0 1-1.24.12c-1.12 0-2.106-.187-2.96-.56a5.8 5.8 0 0 1-2.08-1.68c-.56-.72-.973-1.573-1.24-2.56-.266-.987-.4-2.08-.4-3.28Zm2.56-.12c0 1.547.44 2.76 1.32 3.64.88.853 1.96 1.28 3.24 1.28.774 0 1.467-.08 2.08-.24a7.893 7.893 0 0 0 1.56-.64c.427-.24.76-.493 1-.76.267-.267.427-.507.48-.72.134-.453.2-.933.2-1.44.027-.507.04-1 .04-1.48v-1.08c0-.64-.12-1.24-.36-1.8a5.25 5.25 0 0 0-.88-1.56 4.29 4.29 0 0 0-1.32-1.08 3.08 3.08 0 0 0-1.52-.4c-.906 0-1.72.16-2.44.48-.72.293-1.333.72-1.84 1.28a5.721 5.721 0 0 0-1.16 2 7.678 7.678 0 0 0-.4 2.52Zm19.55-13.6c-.186 0-.4-.027-.64-.08a2.158 2.158 0 0 1-.68-.28c-.213-.16-.4-.36-.56-.6-.133-.267-.2-.613-.2-1.04 0-.293.054-.587.16-.88a3.12 3.12 0 0 1 .48-.76 2.34 2.34 0 0 1 .6-.56c.24-.16.467-.24.68-.24.427 0 .84.147 1.24.44.427.293.64.867.64 1.72 0 1.52-.573 2.28-1.72 2.28Zm-2.24 20.12a14.294 14.294 0 0 1-.12-.96c-.026-.533-.04-1.48-.04-2.84v-2.04c0-.853.014-1.733.04-2.64.054-.933.12-1.867.2-2.8.107-.933.227-1.773.36-2.52.16-.747.36-1.347.6-1.8.24-.48.534-.72.88-.72.427 0 .68.187.76.56.107.373.16.813.16 1.32-.053 1.12-.133 2.387-.24 3.8a53.193 53.193 0 0 0-.16 4.08c0 .987.08 2.08.24 3.28.16 1.173.24 2.227.24 3.16 0 .64-.133 1.133-.4 1.48-.266.32-.546.48-.84.48-.453 0-.813-.133-1.08-.4-.266-.267-.466-.747-.6-1.44Zm9.185-2.52c.027-1.52.053-2.8.08-3.84.027-1.04.053-1.92.08-2.64.027-.72.04-1.293.04-1.72v-1.12h-.08l-2.52.12c-.293-.027-.56-.213-.8-.56a2.246 2.246 0 0 1-.36-1.24c0-.427.133-.827.4-1.2.267-.4.547-.6.84-.6l2.56.08h.12a12 12 0 0 1 .72-2.92c.373-.88.827-1.64 1.36-2.28a6.157 6.157 0 0 1 1.88-1.48 4.736 4.736 0 0 1 2.28-.56c.24 0 .56.067.96.2.427.133.853.32 1.28.56.427.24.787.547 1.08.92.32.347.48.747.48 1.2 0 .133-.013.293-.04.48 0 .187-.027.387-.08.6a1.35 1.35 0 0 1-.24.48c-.08.133-.2.2-.36.2-.347-.027-.627-.093-.84-.2l-.64-.4a3.688 3.688 0 0 0-.64-.36c-.24-.133-.56-.2-.96-.2-.693 0-1.253.093-1.68.28a2.598 2.598 0 0 0-1.04.8c-.267.32-.467.72-.6 1.2-.107.453-.187.947-.24 1.48h8.2c.373-2.587 1.027-4.56 1.96-5.92.96-1.387 2.36-2.08 4.2-2.08.213 0 .533.067.96.2.453.133.893.32 1.32.56.427.24.8.547 1.12.92.32.347.48.747.48 1.2 0 .133-.013.307-.04.52 0 .187-.027.373-.08.56a1.35 1.35 0 0 1-.24.48.534.534 0 0 1-.44.2c-.293 0-.56-.053-.8-.16a19.84 19.84 0 0 0-.76-.4 6.763 6.763 0 0 0-.76-.36c-.24-.133-.493-.2-.76-.2-.693 0-1.267.12-1.72.36a3.1 3.1 0 0 0-1.12 1c-.267.4-.467.88-.6 1.44a15.59 15.59 0 0 0-.32 1.68h4.8c.16-.027.32-.04.48-.04.187-.027.36-.04.52-.04.267 0 .52.107.76.32.267.213.4.667.4 1.36 0 .48-.067.853-.2 1.12-.107.24-.253.427-.44.56a1.578 1.578 0 0 1-.56.2 3.42 3.42 0 0 1-.48.04h-5.52l-.12 7.52c.053.693.133 1.4.24 2.12.107.72.16 1.44.16 2.16-.053.56-.16.96-.32 1.2-.133.24-.347.36-.64.36-.773 0-1.267-.107-1.48-.32-.213-.213-.347-.6-.4-1.16a55.178 55.178 0 0 1-.12-2.04v-1.96c0-1.493.013-2.893.04-4.2a78.14 78.14 0 0 1 .16-3.72c-1.68-.027-3.2-.053-4.56-.08a139.7 139.7 0 0 1-2.96-.08h-.6c-.053.907-.093 1.88-.12 2.92-.027 1.013-.04 2.133-.04 3.36v1.92c.027.187.053.44.08.76.027.293.067.693.12 1.2.053.48.12 1.093.2 1.84-.027.56-.133.96-.32 1.2a.77.77 0 0 1-.68.36c-.427 0-.773-.053-1.04-.16-.267-.08-.48-.267-.64-.56-.133-.293-.227-.707-.28-1.24-.053-.56-.08-1.293-.08-2.2Zm30.43 4.48c-1.36 0-2.453-.333-3.28-1a6.922 6.922 0 0 1-1.84-2.52 11.252 11.252 0 0 1-.84-3.12 31.658 31.658 0 0 1-.16-2.96c0-.827.027-1.733.08-2.72.08-.987.214-1.907.4-2.76.187-.88.427-1.613.72-2.2.32-.587.707-.88 1.16-.88.374 0 .627.12.76.36.16.24.24.56.24.96 0 .4-.053.867-.16 1.4-.08.507-.173 1.053-.28 1.64-.106.587-.213 1.2-.32 1.84-.08.64-.12 1.28-.12 1.92 0 .507.04 1.133.12 1.88.08.747.24 1.467.48 2.16a5.31 5.31 0 0 0 1.04 1.76c.454.48 1.067.72 1.84.72.614 0 1.16-.12 1.64-.36.507-.267.96-.587 1.36-.96.4-.4.747-.84 1.04-1.32.32-.48.627-.947.92-1.4.054-.853.094-1.573.12-2.16.054-.613.094-1.2.12-1.76l.08-5.12c0-.613.16-1.027.48-1.24.32-.213.6-.32.84-.32s.48.12.72.36.36.6.36 1.08l-.24 14.64c-.026.693-.133 1.16-.32 1.4-.186.24-.48.36-.88.36-.24 0-.453-.04-.64-.12a.729.729 0 0 1-.44-.36c-.106-.213-.186-.507-.24-.88-.053-.4-.08-.92-.08-1.56v-.72c0-.267.014-.547.04-.84a6.716 6.716 0 0 1-.76 1.92 6.022 6.022 0 0 1-1.16 1.52 5.23 5.23 0 0 1-1.36 1c-.48.24-.96.36-1.44.36Zm12.267-3.32c0-.16.027-.347.08-.56.08-.24.173-.453.28-.64.133-.213.267-.387.4-.52.133-.16.28-.24.44-.24.107 0 .253.12.44.36.24.32.467.573.68.76.24.16.48.293.72.4.267.107.56.173.88.2.347.027.747.04 1.2.04.507 0 1.04-.053 1.6-.16.56-.107 1.067-.227 1.52-.36.453-.133.827-.28 1.12-.44.32-.16.48-.28.48-.36 0-.267-.267-.48-.8-.64-.507-.187-1.16-.36-1.96-.52-.8-.16-1.653-.36-2.56-.6a13.33 13.33 0 0 1-2.56-.96 6.624 6.624 0 0 1-2-1.6c-.507-.667-.76-1.507-.76-2.52 0-1.12.227-2.107.68-2.96a7.053 7.053 0 0 1 1.84-2.2 7.526 7.526 0 0 1 2.48-1.36c.907-.32 1.8-.48 2.68-.48 1.253 0 2.253.347 3 1.04.747.693 1.12 1.493 1.12 2.4 0 .32-.013.667-.04 1.04 0 .373-.04.733-.12 1.08-.08.32-.2.6-.36.84-.16.213-.4.32-.72.32-.293 0-.48-.147-.56-.44-.08-.293-.12-.667-.12-1.12 0-.613-.24-1.027-.72-1.24-.453-.213-1.093-.32-1.92-.32-.453 0-.96.093-1.52.28-.533.16-1.04.4-1.52.72-.48.293-.893.64-1.24 1.04-.32.373-.48.76-.48 1.16 0 .48.253.84.76 1.08.533.213 1.2.4 2 .56.8.16 1.653.333 2.56.52.907.16 1.76.413 2.56.76.8.347 1.453.827 1.96 1.44.533.613.8 1.44.8 2.48 0 .933-.293 1.733-.88 2.4a6.944 6.944 0 0 1-2.12 1.56c-.8.4-1.64.68-2.52.84-.853.187-1.547.28-2.08.28-.4 0-.867-.04-1.4-.12a4.717 4.717 0 0 1-1.56-.44 3.736 3.736 0 0 1-1.24-1c-.347-.453-.52-1.053-.52-1.8Zm18.796-18.76c-.187 0-.4-.027-.64-.08a2.155 2.155 0 0 1-.68-.28c-.213-.16-.4-.36-.56-.6-.133-.267-.2-.613-.2-1.04 0-.293.053-.587.16-.88.133-.293.293-.547.48-.76.187-.24.387-.427.6-.56.24-.16.467-.24.68-.24.427 0 .84.147 1.24.44.427.293.64.867.64 1.72 0 1.52-.573 2.28-1.72 2.28Zm-2.24 20.12a13.882 13.882 0 0 1-.12-.96c-.027-.533-.04-1.48-.04-2.84v-2.04c0-.853.013-1.733.04-2.64.053-.933.12-1.867.2-2.8.107-.933.227-1.773.36-2.52.16-.747.36-1.347.6-1.8.24-.48.533-.72.88-.72.427 0 .68.187.76.56.107.373.16.813.16 1.32-.053 1.12-.133 2.387-.24 3.8a53.04 53.04 0 0 0-.16 4.08c0 .987.08 2.08.24 3.28.16 1.173.24 2.227.24 3.16 0 .64-.133 1.133-.4 1.48-.267.32-.547.48-.84.48-.453 0-.813-.133-1.08-.4-.267-.267-.467-.747-.6-1.44Zm6.225-7.04c0-1.68.226-3.107.68-4.28.453-1.173 1.053-2.12 1.8-2.84.746-.747 1.586-1.28 2.52-1.6a8.09 8.09 0 0 1 2.84-.52c2.213 0 3.933.84 5.16 2.52 1.226 1.653 1.84 3.893 1.84 6.72 0 1.333-.214 2.547-.64 3.64a9.79 9.79 0 0 1-1.68 2.8 7.5 7.5 0 0 1-2.4 1.8c-.88.427-1.787.64-2.72.64a5.591 5.591 0 0 1-2.88-.8 9.845 9.845 0 0 1-2.36-2.12c-.667-.853-1.2-1.8-1.6-2.84-.374-1.067-.56-2.107-.56-3.12Zm7.2 5.48c.666 0 1.306-.12 1.92-.36.64-.267 1.2-.64 1.68-1.12a5.178 5.178 0 0 0 1.2-1.76c.293-.693.44-1.493.44-2.4 0-.827-.107-1.587-.32-2.28-.214-.693-.507-1.28-.88-1.76a3.897 3.897 0 0 0-1.32-1.16 3.467 3.467 0 0 0-1.64-.4c-.694 0-1.4.12-2.12.36a5.551 5.551 0 0 0-1.88 1c-.56.427-1.027.987-1.4 1.68-.347.667-.52 1.44-.52 2.32 0 .72.133 1.44.4 2.16.266.693.626 1.32 1.08 1.88.453.56.973 1.013 1.56 1.36.586.32 1.186.48 1.8.48Zm11.332-6.2c-.053-.64-.093-1.16-.12-1.56 0-.427-.013-.773-.04-1.04v-1.56c0-.427.013-.88.04-1.36.053-.507.12-.973.2-1.4a4.59 4.59 0 0 1 .4-1.08c.16-.293.373-.44.64-.44.933 0 1.4.813 1.4 2.44 0 .293-.013.6-.04.92-.027.32-.067.667-.12 1.04.213-.773.56-1.44 1.04-2a8.015 8.015 0 0 1 1.64-1.4 7.88 7.88 0 0 1 1.72-.84c.587-.187 1.08-.28 1.48-.28 1.253 0 2.293.293 3.12.88a6.257 6.257 0 0 1 1.96 2.28c.48.933.813 1.973 1 3.12a21.1 21.1 0 0 1 .28 3.4c0 .933-.027 1.907-.08 2.92a22.058 22.058 0 0 1-.24 2.8c-.107.827-.28 1.52-.52 2.08-.24.533-.56.8-.96.8-.4 0-.747-.107-1.04-.32-.267-.187-.4-.76-.4-1.72 0-.48.04-.933.12-1.36l.24-1.36c.107-.453.2-.907.28-1.36.08-.48.12-.973.12-1.48 0-.72-.053-1.493-.16-2.32-.08-.827-.28-1.6-.6-2.32a4.81 4.81 0 0 0-1.36-1.8c-.587-.48-1.373-.72-2.36-.72-.373 0-.8.093-1.28.28-.48.16-.96.4-1.44.72-.48.293-.947.653-1.4 1.08a8.05 8.05 0 0 0-1.12 1.4c0 .613-.013 1.307-.04 2.08-.027.747-.04 1.4-.04 1.96 0 .853.093 1.653.28 2.4.213.747.32 1.547.32 2.4 0 .587-.067 1.093-.2 1.52-.133.427-.493.64-1.08.64-.213 0-.427-.027-.64-.08-.187-.027-.373-.12-.56-.28-.16-.16-.293-.387-.4-.68-.08-.293-.12-.693-.12-1.2l.08-7.2Z"/>
  <defs>
    <filter id="a" width="225.938" height="138.958" x=".443" y="28.042" color-interpolation-filters="sRGB" filterUnits="userSpaceOnUse">
      <feFlood flood-opacity="0" result="BackgroundImageFix"/>
      <feColorMatrix in="SourceAlpha" result="hardAlpha" values="0 0 0 0 0 0 0 0 0 0 0 0 0 0 0 0 0 0 127 0"/>
      <feOffset dy="4"/>
      <feGaussianBlur stdDeviation="2"/>
      <feComposite in2="hardAlpha" operator="out"/>
      <feColorMatrix values="0 0 0 0 0 0 0 0 0 0 0 0 0 0 0 0 0 0 0.25 0"/>
      <feBlend in2="BackgroundImageFix" result="effect1_dropShadow_60_232"/>
      <feBlend in="SourceGraphic" in2="effect1_dropShadow_60_232" result="shape"/>
    </filter>
  </defs>
</svg>
