<svg xmlns="http://www.w3.org/2000/svg" width="298" height="170" fill="none" viewBox="0 0 298 170">
  <g filter="url(#a)">
    <path fill="#2CE354" d="M4 102.527C4 48.6 45.575 3.74 99.46 1.63 161.528-.8 235.795-1.544 262.998 6.889c36.824 11.415 32.697 91.774 27.964 133.335-1.582 13.902-14.434 23.224-28.287 21.264L26.141 128.022C13.441 126.225 4 115.354 4 102.527Z"/>
  </g>
  <path fill="#fff" d="M40.706 88.902c.042-1.15.125-2.258.25-3.32.124-1.063.327-2.529.609-4.397.11-3.028.136-6.037.075-9.028-.017-3.032.03-6.061.14-9.088.107-2.9.289-4.943.545-6.129.259-1.228.836-1.826 1.731-1.793.555.02 1.054.38 1.498 1.08.486.7.713 1.498.68 2.394l-.04 1.087c-.01.298-.043.617-.098.957a9.306 9.306 0 0 1-.102 1.02c-.057.383-.116.83-.177 1.34l-.155 4.22a139.243 139.243 0 0 0-.09 4.224l-.166 13.25c1.873.155 3.66.306 5.363.454a110.589 110.589 0 0 0 5.815.34c.128.005.3-.01.514-.044.258-.034.58-.064.964-.093.43-.07.987-.135 1.673-.195.552.063 1.008.443 1.367 1.139.36.654.525 1.407.493 2.26a2.815 2.815 0 0 1-.298 1.141c-.142.38-.347.735-.615 1.066a3.28 3.28 0 0 1-.796.74c-.263.204-.523.3-.779.291a50.278 50.278 0 0 1-4.278-.349 84.352 84.352 0 0 0-4.792-.303 18.079 18.079 0 0 0-2.115.05c-.687.103-1.436.14-2.246.11l-.384-.014a5.214 5.214 0 0 1-.637-.087 15.72 15.72 0 0 1-1.149-.106 96.62 96.62 0 0 1-1.847-.26 1.191 1.191 0 0 1-.758-.284c-.163-.22-.228-.777-.195-1.673Zm23.56-8.23c.077-2.09.515-4.144 1.315-6.164.801-2.063 1.871-3.88 3.21-5.454 1.34-1.616 2.86-2.884 4.558-3.804 1.743-.96 3.574-1.406 5.493-1.335a8.576 8.576 0 0 1 4.056 1.173 11.004 11.004 0 0 1 3.291 2.81c.899 1.1 1.6 2.365 2.103 3.792.504 1.385.731 2.76.681 4.124a17.02 17.02 0 0 1-.205 2.106 38.11 38.11 0 0 1-.393 1.97 122.24 122.24 0 0 0-.33 2.038c-.112.722-.185 1.53-.218 2.426-.043 1.193.097 2.031.42 2.513.325.481.806.734 1.446.757.383.014.754-.186 1.11-.6.4-.412.75-.655 1.052-.73 1.108.041 1.633.871 1.574 2.492a3.968 3.968 0 0 1-.376 1.523 4.928 4.928 0 0 1-.947 1.374c-.398.37-.858.695-1.38.974a3.668 3.668 0 0 1-1.678.323c-.597-.022-1.188-.214-1.772-.577a7.209 7.209 0 0 1-1.488-1.336 7.525 7.525 0 0 1-1.083-1.897 5.83 5.83 0 0 1-.366-2.255 24.345 24.345 0 0 1-4.506 4.126c-1.623 1.179-3.394 1.733-5.313 1.663-1.236-.046-2.483-.39-3.74-1.034a12.415 12.415 0 0 1-3.3-2.555 14.36 14.36 0 0 1-2.423-3.803 11.29 11.29 0 0 1-.79-4.64Zm3.973-.046c-.035.938.147 1.798.546 2.581a7.215 7.215 0 0 0 1.718 2.049c.748.54 1.565.975 2.45 1.306a9.053 9.053 0 0 0 2.733.549c1.876.068 3.383-.282 4.522-1.051a9.304 9.304 0 0 0 2.737-3.038 14.898 14.898 0 0 0 1.493-4.044c.31-1.483.597-2.882.858-4.196.017-.469-.198-.989-.647-1.56a7.113 7.113 0 0 0-1.54-1.658 9.617 9.617 0 0 0-2.064-1.356c-.712-.368-1.367-.563-1.964-.585-1.578-.058-3.018.231-4.323.867a11.267 11.267 0 0 0-3.424 2.564 12.377 12.377 0 0 0-2.244 3.568c-.519 1.347-.803 2.682-.851 4.004Zm41.442 2.031c.088-2.388.447-4.616 1.078-6.685.675-2.11 1.596-3.933 2.762-5.47 1.209-1.536 2.661-2.72 4.357-3.555 1.697-.877 3.633-1.276 5.808-1.196a7.234 7.234 0 0 1 2.857.68 7.34 7.34 0 0 1 2.372 1.689 6.875 6.875 0 0 1 1.573 2.491c.392.954.568 1.985.527 3.094a8.797 8.797 0 0 1-.099.957c-.055.34-.153.677-.293 1.013a2.847 2.847 0 0 1-.417.882.787.787 0 0 1-.651.296c-.512-.019-.907-.29-1.187-.812a20.13 20.13 0 0 0-1.088-1.769c-.403-.655-.979-1.253-1.727-1.792-.706-.539-1.742-.833-3.106-.883a7.378 7.378 0 0 0-3.484.705 8.979 8.979 0 0 0-2.769 2.14c-.757.869-1.371 1.893-1.841 3.07a11.249 11.249 0 0 0-.707 3.561c-.053 1.45.095 2.65.444 3.603a5.252 5.252 0 0 0 1.839 2.245c.877.544 1.972.947 3.286 1.209 1.316.219 2.869.361 4.66.427.511.019.939-.008 1.283-.081.389-.114.735-.23 1.038-.346.346-.116.67-.232.973-.349a7.241 7.241 0 0 1 1.168-.405c.17.006.381.078.632.215.253.095.502.296.747.604.246.265.446.635.599 1.11.155.433.22.99.195 1.673-.026.725-.351 1.438-.975 2.141-.579.662-1.103.985-1.572.967l-1.727-.063a32.547 32.547 0 0 0-2.947.02c-.898.053-1.859.06-2.883.023a17.891 17.891 0 0 1-4.33-.672 9.37 9.37 0 0 1-3.454-1.855c-.95-.889-1.697-2.048-2.242-3.477-.544-1.471-.777-3.273-.699-5.405Zm26.409 8.717c.095-2.6.223-5.5.382-8.695l.485-9.717c.207-3.323.39-6.582.55-9.779.16-3.196.287-6.073.381-8.632a5.89 5.89 0 0 1 .17-1.146 6.12 6.12 0 0 1 .556-1.197 3.45 3.45 0 0 1 .803-.93c.309-.288.656-.425 1.039-.41.469.016.865.287 1.187.811.367.483.538 1.066.513 1.748l-.005.128c-.087 2.388-.243 4.88-.466 7.476-.223 2.596-.38 5.11-.469 7.54l-.257 3.513a4.985 4.985 0 0 1 1.042-2.204 7.658 7.658 0 0 1 1.854-1.66 7.642 7.642 0 0 1 2.217-1.072c.777-.228 1.506-.33 2.188-.304 2.516.092 4.546.615 6.091 1.568 1.545.953 2.719 2.127 3.521 3.523a12.078 12.078 0 0 1 1.625 4.607c.281 1.633.396 3.174.342 4.623l-.671 9.582c-.014.384-.053.874-.118 1.469a11.2 11.2 0 0 1-.319 1.717 3.568 3.568 0 0 1-.689 1.32c-.312.373-.746.55-1.3.529-.725-.027-1.29-.346-1.694-.959-.36-.653-.524-1.428-.491-2.323a40.3 40.3 0 0 1 .512-5.233c.317-1.654.508-3.376.573-5.167l.024-.64c.033-.895.004-1.856-.087-2.884a6.597 6.597 0 0 0-.92-2.852c-.521-.916-1.305-1.67-2.35-2.264-1.046-.593-2.485-.923-4.319-.99a7.004 7.004 0 0 0-2.641.415 7.528 7.528 0 0 0-2.283 1.133 7.101 7.101 0 0 0-1.657 1.54c-.405.54-.616 1.067-.635 1.578l-.506 13.815a13.05 13.05 0 0 1-.111 1.277 5.577 5.577 0 0 1-.3 1.206 1.542 1.542 0 0 1-.542.812c-.264.204-.63.297-1.099.28a4.043 4.043 0 0 1-.638-.087c-.254-.052-.505-.19-.753-.412-.206-.221-.386-.526-.543-.916-.155-.433-.219-1.012-.192-1.737Zm27.797-7.05c.077-2.09.515-4.144 1.315-6.164.801-2.063 1.871-3.88 3.21-5.454 1.34-1.616 2.859-2.884 4.558-3.804 1.743-.96 3.574-1.406 5.493-1.335a8.574 8.574 0 0 1 4.055 1.173 11.013 11.013 0 0 1 3.292 2.81c.899 1.1 1.599 2.365 2.102 3.792.504 1.385.732 2.76.682 4.124a16.963 16.963 0 0 1-.206 2.106 37.262 37.262 0 0 1-.392 1.97c-.109.637-.219 1.316-.331 2.038a20.96 20.96 0 0 0-.217 2.425c-.044 1.194.096 2.032.42 2.514.324.481.806.733 1.445.757.384.014.754-.186 1.111-.6.399-.412.75-.655 1.052-.73 1.108.04 1.633.871 1.573 2.492a3.952 3.952 0 0 1-.376 1.523 4.915 4.915 0 0 1-.947 1.374c-.398.37-.858.695-1.38.974a3.668 3.668 0 0 1-1.677.323c-.597-.022-1.188-.214-1.772-.577a7.198 7.198 0 0 1-1.488-1.336 7.536 7.536 0 0 1-1.084-1.897 5.83 5.83 0 0 1-.365-2.255 24.379 24.379 0 0 1-4.506 4.126c-1.623 1.179-3.394 1.733-5.313 1.663-1.236-.046-2.483-.39-3.741-1.034a12.423 12.423 0 0 1-3.3-2.555 14.349 14.349 0 0 1-2.422-3.803 11.287 11.287 0 0 1-.791-4.64Zm3.972-.047c-.034.938.148 1.799.546 2.582a7.228 7.228 0 0 0 1.718 2.048c.749.54 1.566.976 2.45 1.307a9.044 9.044 0 0 0 2.734.549c1.876.068 3.383-.282 4.521-1.052a9.293 9.293 0 0 0 2.737-3.037 14.88 14.88 0 0 0 1.494-4.044c.31-1.483.596-2.882.858-4.196.017-.469-.199-.989-.647-1.56a7.114 7.114 0 0 0-1.541-1.658 9.614 9.614 0 0 0-2.063-1.356c-.713-.368-1.367-.563-1.964-.585-1.578-.058-3.019.231-4.323.866a11.26 11.26 0 0 0-3.424 2.565 12.35 12.35 0 0 0-2.244 3.568c-.519 1.347-.803 2.682-.852 4.003Zm28.311 9.94c-.035-.215-.08-.729-.135-1.542-.012-.854.022-2.369.102-4.543l.12-3.262c.05-1.364.123-2.77.218-4.219.14-1.489.302-2.977.484-4.465.226-1.486.467-2.822.724-4.008.299-1.185.654-2.132 1.064-2.843.412-.754.895-1.12 1.45-1.1.682.025 1.076.338 1.182.94.149.603.208 1.31.179 2.12a223.89 223.89 0 0 1-.607 6.062 84.95 84.95 0 0 0-.495 6.514c-.058 1.578.006 3.33.192 5.259.187 1.885.253 3.574.198 5.066-.037 1.024-.279 1.805-.726 2.343-.445.496-.902.736-1.371.719-.725-.027-1.293-.261-1.704-.703-.411-.442-.702-1.221-.875-2.338Zm-5.874-30.187c-.469-.017-.908-.268-1.317-.753-.452-.486-.658-1.284-.617-2.392.022-.597.21-1.06.563-1.389.311-.33.641-.595.99-.796 1.01-.774 2-1.549 2.967-2.325a78.72 78.72 0 0 1 2.702-2.078c.876-.608 1.663-1.092 2.359-1.45.74-.4 1.409-.59 2.006-.568.384.014.763.156 1.137.426.417.272.811.607 1.18 1.004.414.357.784.755 1.109 1.194.368.44.717.837 1.045 1.19.327.397.78.862 1.358 1.395.58.491 1.138 1.003 1.673 1.535a13.077 13.077 0 0 1 1.479 1.591c.407.527.604.983.59 1.367-.025.682-.349 1.374-.973 2.077-.581.705-1.297 1.041-2.15 1.01-.384-.014-.863-.33-1.438-.95a34.798 34.798 0 0 1-1.714-2.175 35.314 35.314 0 0 0-1.96-2.442c-.654-.792-1.315-1.393-1.983-1.802-.568.364-1.25.915-2.046 1.654a117.01 117.01 0 0 1-2.384 2.155 29.314 29.314 0 0 1-2.437 1.832c-.786.483-1.499.713-2.139.69Zm17.496 18.189c-.048-1.027-.082-1.86-.101-2.501.025-.683.024-1.238-.003-1.666l.035-.96.024-.639.033-.895a39.07 39.07 0 0 1 .143-2.172c.115-.807.249-1.55.402-2.227.196-.676.43-1.244.703-1.704.273-.46.623-.681 1.049-.665 1.492.054 2.191 1.382 2.096 3.983a18.29 18.29 0 0 1-.118 1.469c-.062.51-.146 1.062-.253 1.655.386-1.224.98-2.27 1.78-3.136a12.84 12.84 0 0 1 2.704-2.143c.96-.562 1.893-.976 2.8-1.242.949-.264 1.743-.385 2.382-.361 2.004.073 3.65.603 4.938 1.59 1.287.986 2.287 2.24 3 3.76.713 1.52 1.185 3.203 1.416 5.048.231 1.844.314 3.662.248 5.452a87.882 87.882 0 0 1-.299 4.665 34.948 34.948 0 0 1-.548 4.463c-.219 1.315-.536 2.413-.953 3.295-.415.838-.942 1.246-1.582 1.223-.639-.024-1.187-.215-1.644-.573-.415-.314-.595-1.239-.539-2.774.028-.767.119-1.49.272-2.167l.463-2.16c.197-.72.373-1.439.528-2.159a14.31 14.31 0 0 0 .278-2.36c.043-1.15.003-2.39-.12-3.718a11.87 11.87 0 0 0-.823-3.745 7.695 7.695 0 0 0-2.069-2.957c-.91-.802-2.154-1.232-3.731-1.29-.597-.022-1.285.102-2.063.373a9.689 9.689 0 0 0-2.345 1.067c-.785.44-1.552.989-2.302 1.644a12.943 12.943 0 0 0-1.873 2.173c-.036.98-.097 2.089-.185 3.324a88.261 88.261 0 0 0-.179 3.131 15.78 15.78 0 0 0 .307 3.854c.297 1.206.421 2.492.371 3.856-.035.938-.171 1.744-.409 2.419-.238.674-.826.994-1.764.96a4.203 4.203 0 0 1-1.019-.166c-.297-.053-.59-.213-.879-.48-.247-.265-.446-.636-.6-1.11-.111-.475-.151-1.117-.121-1.927l.55-11.507Zm31.97 6.487c.3 1.121.844 2.017 1.631 2.686a8.102 8.102 0 0 0 2.634 1.505c.97.335 1.944.563 2.921.684.979.078 1.831.131 2.556.158a7.67 7.67 0 0 0 2.186-.24 22.934 22.934 0 0 0 2.073-.629c.691-.23 1.318-.443 1.88-.636.605-.19 1.099-.28 1.483-.265 1.45.053 2.14 1.017 2.071 2.894-.04 1.108-.583 1.942-1.628 2.502-1.003.56-2.192.965-3.567 1.214-1.333.25-2.661.372-3.984.366-1.283.038-2.222.047-2.819.025-1.45-.053-2.866-.426-4.25-1.117a12.23 12.23 0 0 1-3.675-2.824c-1.024-1.19-1.849-2.566-2.475-4.126-.583-1.558-.842-3.233-.776-5.024.091-2.473.472-4.721 1.144-6.746.714-2.023 1.675-3.76 2.881-5.21a11.66 11.66 0 0 1 4.411-3.297c1.737-.79 3.693-1.145 5.867-1.066 1.066.04 2.167.293 3.303.762a8.57 8.57 0 0 1 3.004 1.903c.91.802 1.641 1.811 2.195 3.027.554 1.173.804 2.527.747 4.062-.036.98-.215 1.807-.539 2.478-.323.671-.744 1.083-1.262 1.234l-18.012 5.68Zm-.094-4.422a55.517 55.517 0 0 0 4.078-1.196l4.671-1.621c1.558-.584 3.009-1.128 4.351-1.634 1.386-.547 2.512-.975 3.377-1.285-.511-1.215-1.418-2.08-2.723-2.598-1.26-.558-2.636-.865-4.129-.92-.597-.022-1.371.142-2.323.492-.951.306-1.931.825-2.939 1.557-.966.733-1.856 1.704-2.669 2.912-.811 1.166-1.376 2.597-1.694 4.293Z"/>
  <defs>
    <filter id="a" width="298" height="169.748" x="0" y="0" color-interpolation-filters="sRGB" filterUnits="userSpaceOnUse">
      <feFlood flood-opacity="0" result="BackgroundImageFix"/>
      <feColorMatrix in="SourceAlpha" result="hardAlpha" values="0 0 0 0 0 0 0 0 0 0 0 0 0 0 0 0 0 0 127 0"/>
      <feOffset dy="4"/>
      <feGaussianBlur stdDeviation="2"/>
      <feComposite in2="hardAlpha" operator="out"/>
      <feColorMatrix values="0 0 0 0 0 0 0 0 0 0 0 0 0 0 0 0 0 0 0.25 0"/>
      <feBlend in2="BackgroundImageFix" result="effect1_dropShadow_41_9"/>
      <feBlend in="SourceGraphic" in2="effect1_dropShadow_41_9" result="shape"/>
    </filter>
  </defs>
</svg>
