<svg xmlns="http://www.w3.org/2000/svg" width="220" height="222" fill="none" viewBox="0 0 220 222">
  <g filter="url(#a)">
    <path fill="#FDC025" d="M95.658 9.745a25.518 25.518 0 0 1 28.684 0l39.323 26.72 37.564 29.663a25.518 25.518 0 0 1 8.737 26.983l-13.135 46.359-16.316 45.126a25.517 25.517 0 0 1-23.079 16.825L110 203.13l-47.436-1.709a25.518 25.518 0 0 1-23.08-16.825L23.169 139.47 10.035 93.111a25.518 25.518 0 0 1 8.737-26.983l37.564-29.663 39.323-26.72Z"/>
  </g>
  <path fill="#fff" d="M20.64 118.048c0-.256.042-.597.127-1.024a12.6 12.6 0 0 1 .448-1.344 3.84 3.84 0 0 1 .64-1.088c.256-.341.512-.512.768-.512.128 0 .363.341.704 1.024.427.896.832 1.579 1.216 2.048.384.469.768.832 1.152 1.088a3.84 3.84 0 0 0 1.408.384c.555.043 1.195.064 1.92.064.896 0 1.814-.128 2.752-.384a14 14 0 0 0 2.56-1.088c.768-.469 1.408-.96 1.92-1.472.512-.555.768-1.067.768-1.536 0-.811-.448-1.429-1.344-1.856-.853-.427-1.941-.811-3.264-1.152a284.93 284.93 0 0 0-4.224-1.088 22.147 22.147 0 0 1-4.288-1.536 10.509 10.509 0 0 1-3.264-2.688c-.853-1.109-1.28-2.581-1.28-4.416 0-2.09.384-3.968 1.152-5.632.81-1.664 1.814-3.05 3.008-4.16a13.752 13.752 0 0 1 4.096-2.56c1.536-.597 3.05-.896 4.544-.896 1.024 0 1.942.192 2.752.576.81.341 1.515.832 2.112 1.472a5.768 5.768 0 0 1 1.344 2.112c.342.81.512 1.643.512 2.496 0 .555-.021 1.152-.064 1.792a9.72 9.72 0 0 1-.256 1.664c-.128.512-.341.939-.64 1.28-.256.341-.618.512-1.088.512-.597 0-.96-.277-1.088-.832a12.748 12.748 0 0 1-.128-1.92c0-1.365-.384-2.283-1.152-2.752-.768-.512-1.792-.768-3.072-.768-.725 0-1.557.192-2.496.576-.896.384-1.77.917-2.624 1.6-.81.64-1.514 1.387-2.112 2.24-.554.853-.832 1.728-.832 2.624 0 .939.427 1.664 1.28 2.176.896.469 2.006.875 3.328 1.216 1.323.299 2.73.619 4.224.96 1.536.299 2.966.789 4.288 1.472 1.323.64 2.41 1.515 3.264 2.624.896 1.109 1.344 2.624 1.344 4.544 0 1.92-.512 3.563-1.536 4.928A12.796 12.796 0 0 1 36 122.08a16.536 16.536 0 0 1-4.224 1.792c-1.408.341-2.538.512-3.392.512-.64 0-1.408-.064-2.304-.192a7.83 7.83 0 0 1-2.56-.832c-.768-.427-1.45-1.067-2.048-1.92-.554-.853-.832-1.984-.832-3.392Zm25.881-7.616c0-2.688.363-4.971 1.088-6.848.726-1.877 1.686-3.392 2.88-4.544 1.195-1.195 2.539-2.048 4.032-2.56a12.958 12.958 0 0 1 4.544-.832c3.542 0 6.294 1.344 8.256 4.032 1.963 2.645 2.944 6.229 2.944 10.752 0 2.133-.341 4.075-1.024 5.824-.682 1.707-1.578 3.2-2.688 4.48a11.974 11.974 0 0 1-3.84 2.88c-1.408.683-2.858 1.024-4.352 1.024-1.621 0-3.157-.427-4.608-1.28a15.757 15.757 0 0 1-3.776-3.392 17.583 17.583 0 0 1-2.56-4.544c-.597-1.707-.896-3.371-.896-4.992Zm11.52 8.768c1.067 0 2.09-.192 3.072-.576a8.251 8.251 0 0 0 2.688-1.792c.81-.768 1.45-1.707 1.92-2.816.47-1.109.704-2.389.704-3.84 0-1.323-.17-2.539-.512-3.648-.341-1.109-.81-2.048-1.408-2.816-.597-.811-1.301-1.429-2.112-1.856a5.546 5.546 0 0 0-2.624-.64c-1.11 0-2.24.192-3.392.576a8.892 8.892 0 0 0-3.008 1.6c-.896.683-1.642 1.579-2.24 2.688-.554 1.067-.832 2.304-.832 3.712a9.89 9.89 0 0 0 .64 3.456 11.052 11.052 0 0 0 1.728 3.008 9.273 9.273 0 0 0 2.496 2.176c.939.512 1.899.768 2.88.768Zm27.092 5.632c-2.176 0-3.925-.533-5.248-1.6a11.08 11.08 0 0 1-2.944-4.032 18.001 18.001 0 0 1-1.344-4.992c-.17-1.792-.256-3.371-.256-4.736 0-1.323.043-2.773.128-4.352a33.25 33.25 0 0 1 .64-4.416c.299-1.408.683-2.581 1.152-3.52.512-.939 1.13-1.408 1.856-1.408.598 0 1.003.192 1.216.576.256.384.384.896.384 1.536s-.085 1.387-.256 2.24a113.16 113.16 0 0 1-.448 2.624c-.17.939-.341 1.92-.512 2.944a24.744 24.744 0 0 0-.192 3.072c0 .811.064 1.813.192 3.008s.384 2.347.768 3.456a8.486 8.486 0 0 0 1.664 2.816c.726.768 1.707 1.152 2.944 1.152.982 0 1.856-.192 2.624-.576.81-.427 1.536-.939 2.176-1.536.64-.64 1.195-1.344 1.664-2.112a199.74 199.74 0 0 0 1.472-2.24c.086-1.365.15-2.517.192-3.456.086-.981.15-1.92.192-2.816l.128-8.192c0-.981.256-1.643.768-1.984.512-.341.96-.512 1.344-.512.384 0 .768.192 1.152.576.384.384.576.96.576 1.728l-.384 23.424c-.042 1.109-.213 1.856-.512 2.24-.298.384-.768.576-1.408.576a2.58 2.58 0 0 1-1.024-.192c-.298-.085-.533-.277-.704-.576-.17-.341-.298-.811-.384-1.408-.085-.64-.128-1.472-.128-2.496v-1.152c0-.427.022-.875.064-1.344a10.758 10.758 0 0 1-1.216 3.072 9.66 9.66 0 0 1-1.856 2.432 8.38 8.38 0 0 1-2.176 1.6c-.768.384-1.536.576-2.304.576Zm18.923-4.288v-2.368c.042-.64.064-1.173.064-1.6v-3.392c0-.555.021-1.344.064-2.368.085-1.024.17-2.432.256-4.224.128-1.792.32-4.267.576-7.424.085-.939.298-1.685.64-2.24.341-.597.874-.896 1.6-.896.341 0 .704.235 1.088.704.384.427.576 1.28.576 2.56V100c0 .213-.022.469-.064.768.298-.981.768-1.813 1.408-2.496a9.241 9.241 0 0 1 2.24-1.664 9.21 9.21 0 0 1 2.496-.896c.853-.213 1.642-.32 2.368-.32.554 0 1.194.064 1.92.192a5.806 5.806 0 0 1 2.112.64 3.804 3.804 0 0 1 1.664 1.408c.469.597.704 1.408.704 2.432 0 .939-.171 1.707-.512 2.304-.342.597-.832.896-1.472.896-.512 0-.854-.107-1.024-.32a6.366 6.366 0 0 0-.512-.832c-.171-.299-.448-.555-.832-.768-.384-.256-1.067-.384-2.048-.384h-.64c-3.072 0-5.227.853-6.464 2.56-1.238 1.664-1.856 4.16-1.856 7.488v1.088l.32 9.024c0 .213-.043.491-.128.832a5.708 5.708 0 0 1-.384.96c-.171.341-.406.64-.704.896-.256.213-.598.32-1.024.32-.982 0-1.643-.277-1.984-.832-.299-.597-.448-1.515-.448-2.752Zm22.214-7.232c0-2.389.277-4.629.832-6.72.597-2.133 1.45-3.989 2.56-5.568 1.152-1.579 2.56-2.816 4.224-3.712 1.664-.939 3.584-1.408 5.76-1.408 1.024 0 1.984.192 2.88.576a7.32 7.32 0 0 1 2.432 1.6 6.875 6.875 0 0 1 1.664 2.432c.426.939.64 1.963.64 3.072 0 .256-.022.576-.064.96a4.518 4.518 0 0 1-.256 1.024c-.086.341-.214.64-.384.896a.79.79 0 0 1-.64.32c-.512 0-.918-.256-1.216-.768a20.314 20.314 0 0 0-1.152-1.728c-.427-.64-1.024-1.216-1.792-1.728-.726-.512-1.771-.768-3.136-.768-1.238 0-2.39.277-3.456.832a8.978 8.978 0 0 0-2.688 2.24c-.726.896-1.302 1.941-1.728 3.136a11.26 11.26 0 0 0-.576 3.584c0 1.451.192 2.645.576 3.584a5.238 5.238 0 0 0 1.92 2.176c.896.512 2.005.875 3.328 1.088 1.322.171 2.88.256 4.672.256.512 0 .938-.043 1.28-.128.384-.128.725-.256 1.024-.384.341-.128.661-.256.96-.384a7.15 7.15 0 0 1 1.152-.448c.17 0 .384.064.64.192.256.085.512.277.768.576.256.256.469.619.64 1.088.17.427.256.981.256 1.664 0 .725-.299 1.451-.896 2.176-.555.683-1.067 1.024-1.536 1.024h-1.728c-1.024 0-2.006.043-2.944.128-.896.085-1.856.128-2.88.128-1.536 0-2.987-.171-4.352-.512a9.36 9.36 0 0 1-3.52-1.728c-.982-.853-1.771-1.984-2.368-3.392-.598-1.451-.896-3.243-.896-5.376Zm29.59 1.28c.341 1.109.917 1.984 1.728 2.624a8.109 8.109 0 0 0 2.688 1.408c.981.299 1.962.491 2.944.576.981.043 1.834.064 2.56.064.725 0 1.45-.107 2.176-.32a22.89 22.89 0 0 0 2.048-.704c.682-.256 1.301-.491 1.856-.704.597-.213 1.088-.32 1.472-.32 1.45 0 2.176.939 2.176 2.816 0 1.109-.512 1.963-1.536 2.56-.982.597-2.155 1.045-3.52 1.344a21.073 21.073 0 0 1-3.968.512c-1.28.085-2.219.128-2.816.128-1.451 0-2.88-.32-4.288-.96a12.237 12.237 0 0 1-3.776-2.688c-1.067-1.152-1.942-2.496-2.624-4.032-.64-1.536-.96-3.2-.96-4.992 0-2.475.298-4.736.896-6.784.64-2.048 1.536-3.819 2.688-5.312a11.657 11.657 0 0 1 4.288-3.456c1.706-.853 3.648-1.28 5.824-1.28 1.066 0 2.176.213 3.328.64a8.567 8.567 0 0 1 3.072 1.792c.938.768 1.706 1.75 2.304 2.944.597 1.152.896 2.496.896 4.032 0 .981-.15 1.813-.448 2.496-.299.683-.704 1.109-1.216 1.28l-17.792 6.336Zm-.256-4.416a55.48 55.48 0 0 0 4.032-1.344l4.608-1.792c1.536-.64 2.965-1.237 4.288-1.792a117.07 117.07 0 0 1 3.328-1.408c-.555-1.195-1.494-2.027-2.816-2.496-1.28-.512-2.667-.768-4.16-.768-.598 0-1.366.192-2.304.576-.939.341-1.899.896-2.88 1.664-.939.768-1.792 1.771-2.56 3.008-.768 1.195-1.28 2.645-1.536 4.352Zm26.843 9.344c0-.256.043-.555.128-.896.128-.384.278-.725.448-1.024.214-.341.427-.619.64-.832.214-.256.448-.384.704-.384.171 0 .406.192.704.576.384.512.747.917 1.088 1.216a7.8 7.8 0 0 0 1.152.64 4.86 4.86 0 0 0 1.408.32c.555.043 1.195.064 1.92.064.811 0 1.664-.085 2.56-.256a25.894 25.894 0 0 0 2.432-.576c.726-.213 1.323-.448 1.792-.704.512-.256.768-.448.768-.576 0-.427-.426-.768-1.28-1.024-.81-.299-1.856-.576-3.136-.832a68.851 68.851 0 0 1-4.096-.96 21.36 21.36 0 0 1-4.096-1.536c-1.28-.683-2.346-1.536-3.2-2.56-.81-1.067-1.216-2.411-1.216-4.032 0-1.792.363-3.371 1.088-4.736.768-1.408 1.75-2.581 2.944-3.52a12.051 12.051 0 0 1 3.968-2.176c1.451-.512 2.88-.768 4.288-.768 2.006 0 3.606.555 4.8 1.664 1.195 1.11 1.792 2.39 1.792 3.84 0 .512-.021 1.067-.064 1.664 0 .597-.064 1.173-.192 1.728-.128.512-.32.96-.576 1.344-.256.341-.64.512-1.152.512-.469 0-.768-.235-.896-.704s-.192-1.067-.192-1.792c0-.981-.384-1.643-1.152-1.984-.725-.341-1.749-.512-3.072-.512-.725 0-1.536.149-2.432.448a9.065 9.065 0 0 0-2.432 1.152 8.391 8.391 0 0 0-1.984 1.664c-.512.597-.768 1.216-.768 1.856 0 .768.406 1.344 1.216 1.728.854.341 1.92.64 3.2.896 1.28.256 2.646.533 4.096.832 1.451.256 2.816.661 4.096 1.216 1.28.555 2.326 1.323 3.136 2.304.854.981 1.28 2.304 1.28 3.968 0 1.493-.469 2.773-1.408 3.84-.938 1.024-2.069 1.856-3.392 2.496a14.951 14.951 0 0 1-4.032 1.344c-1.365.299-2.474.448-3.328.448-.64 0-1.386-.064-2.24-.192a7.549 7.549 0 0 1-2.496-.704 5.978 5.978 0 0 1-1.984-1.6c-.554-.725-.832-1.685-.832-2.88Z"/>
  <defs>
    <filter id="a" width="209.868" height="205.796" x="5.066" y="5.334" color-interpolation-filters="sRGB" filterUnits="userSpaceOnUse">
      <feFlood flood-opacity="0" result="BackgroundImageFix"/>
      <feColorMatrix in="SourceAlpha" result="hardAlpha" values="0 0 0 0 0 0 0 0 0 0 0 0 0 0 0 0 0 0 127 0"/>
      <feOffset dy="4"/>
      <feGaussianBlur stdDeviation="2"/>
      <feComposite in2="hardAlpha" operator="out"/>
      <feColorMatrix values="0 0 0 0 0 0 0 0 0 0 0 0 0 0 0 0 0 0 0.25 0"/>
      <feBlend in2="BackgroundImageFix" result="effect1_dropShadow_41_38"/>
      <feBlend in="SourceGraphic" in2="effect1_dropShadow_41_38" result="shape"/>
    </filter>
  </defs>
</svg>
