<svg xmlns="http://www.w3.org/2000/svg" width="297" height="234" fill="none" viewBox="0 0 297 234">
  <g filter="url(#a)">
    <path fill="#FF2929" d="M250.4 82.905c-12.241-44.068-58.877-68.92-102.137-54.075C105.361 43.552 56.42 60.75 32.398 70.613-2.782 85.056 3.083 163.622 8.727 204.562c1.92 13.925 15.096 22.937 28.946 20.538l219.454-38.023c18.979-3.288 29.572-23.789 21.273-41.172l-28-63Z"/>
  </g>
  <path fill="#fff" d="M58.486 102.756a2.168 2.168 0 0 0-.237-.744 3.587 3.587 0 0 1-.2-.846 3.982 3.982 0 0 1-.017-.53 9.91 9.91 0 0 1 .15-.744c-.11-.631-.27-1.675-.48-3.133l-.58-4.716-.158-1.287a7.384 7.384 0 0 1 .033-1.31 2.76 2.76 0 0 1 .407-1.016c.191-.282.509-.45.953-.505.477-.058.93-.05 1.358.027.46.073.944.078 1.453.015l2.43-.298a82.333 82.333 0 0 1 2.804-.393l2.859-.35a72.31 72.31 0 0 1 2.424-.347c.953-.117 1.615-.101 1.988.046.405.144.664.677.777 1.598.066.54-.01 1.097-.23 1.672-.224.543-.542.84-.955.891l-5.479.673c-1.496.151-2.769.291-3.817.42-1.02.093-1.832.177-2.435.25-.608.043-1.086.086-1.435.129.042.349.083.812.122 1.387l.222 1.81c.074.604.13 1.194.169 1.77l.175 1.428 8.183-1.101c.445-.055.847.073 1.208.384.356.278.583.815.68 1.609.016.127.008.321-.024.583a2.381 2.381 0 0 1-.15.744 1.994 1.994 0 0 1-.354.672 1.017 1.017 0 0 1-.637.32l-3.097.38-2.192.269a27.18 27.18 0 0 0-1.435.128l-.857.105c-.413.051-.665.098-.757.142l1.009 7.033a91.133 91.133 0 0 1 5.836-.523c1.98-.146 4.02-.348 6.115-.606.636-.078 1.066.144 1.291.664a5.29 5.29 0 0 1 .502 1.728c.11.889-.055 1.522-.492 1.898a2.875 2.875 0 0 1-1.561.675 12.49 12.49 0 0 1-1.632.104c-.48.026-.994.041-1.542.044-.544.034-1.2.067-1.97.097-.767.062-1.738.165-2.913.309-.667.082-1.346.198-2.037.347-.687.181-1.427.32-2.221.418-.54.066-1.032-.132-1.476-.593-.415-.497-.658-1.16-.728-1.99l-1.05-9.737Zm4.452-18.488a.859.859 0 0 1-.506-.18 1.194 1.194 0 0 1-.386-.387c-.087-.183-.152-.45-.195-.799-.066-.54.038-1.004.313-1.392a5.69 5.69 0 0 1 .937-1.034c.473-.348.954-.762 1.444-1.241.52-.483 1.03-.933 1.527-1.348a14.61 14.61 0 0 1 1.407-1.14c.445-.313.843-.49 1.192-.534.445-.054.843.042 1.196.289.353.247.57.704.652 1.37.086.7-.196 1.427-.844 2.184-.653.725-1.424 1.4-2.315 2.025a20.69 20.69 0 0 1-2.617 1.53c-.854.395-1.456.614-1.805.657Zm26.004 27.419c-1.143.141-2.097-.016-2.862-.47-.77-.486-1.401-1.166-1.895-2.041-.495-.874-.893-1.889-1.196-3.045a44.438 44.438 0 0 1-.683-3.591l-.552-3.705a34.604 34.604 0 0 0-.546-3.27c-.35.044-.713.104-1.09.183-.377.078-.788.145-1.233.2-.127.015-.308-.011-.541-.079a4.73 4.73 0 0 1-.667-.305 3.776 3.776 0 0 1-.606-.603 2.018 2.018 0 0 1-.301-.882c-.078-.635.046-1.198.373-1.69.326-.491.728-.766 1.204-.824a16.17 16.17 0 0 1 1.244-.105c.413-.05.86-.09 1.34-.116a57.46 57.46 0 0 1-.186-1.912 32.587 32.587 0 0 1-.024-2.56c.057-.845.19-1.603.398-2.273.207-.67.55-1.035 1.026-1.093.254-.032.547.126.88.472.36.31.578.767.652 1.37.176 1.43.259 2.5.25 3.21.021.707.022 1.239.002 1.596l-.038.875c1.143-.14 2.285-.297 3.424-.469a131.31 131.31 0 0 1 3.52-.48.786.786 0 0 1 .601.168c.178.139.33.33.457.572.123.21.217.457.284.739.095.246.156.48.183.703.082.667-.03 1.197-.337 1.589-.278.356-.576.554-.894.593l-6.777.736c.035.285.066.669.093 1.149l.181 1.477c.067.54.12 1.113.163 1.72l.205 1.668c.105.858.239 1.68.4 2.466.157.754.352 1.424.584 2.008.265.58.58 1.041.944 1.383.36.31.81.432 1.35.366a2.972 2.972 0 0 0 1.115-.379 7.105 7.105 0 0 0 1.031-.658 20.2 20.2 0 0 0 .788-.677c.203-.186.336-.283.4-.291.38-.047.65.049.808.288.155.206.26.532.314.977.058.476-.038 1.004-.29 1.583a6.643 6.643 0 0 1-.92 1.563c-.39.5-.821.923-1.294 1.272-.474.348-.9.546-1.282.592Zm15.966-1.573c-1.62.199-2.971-.038-4.053-.712a8.306 8.306 0 0 1-2.56-2.732 13.498 13.498 0 0 1-1.457-3.593 38.023 38.023 0 0 1-.623-3.502 60.85 60.85 0 0 1-.303-3.252 24.962 24.962 0 0 1 .073-3.345c.094-1.076.273-1.984.536-2.726.296-.746.713-1.152 1.253-1.218.445-.055.764.051.958.318.226.262.368.632.426 1.108.059.477.063 1.04.014 1.69a86.54 86.54 0 0 1-.093 1.995c-.042.715-.079 1.46-.112 2.239-.002.773.044 1.542.138 2.304.074.603.213 1.344.417 2.222.205.877.501 1.711.888 2.502a6.357 6.357 0 0 0 1.496 1.944c.61.506 1.376.702 2.297.589.73-.09 1.364-.313 1.901-.669a7.517 7.517 0 0 0 1.479-1.342 8.536 8.536 0 0 0 1.046-1.725c.311-.618.608-1.219.891-1.802a165.987 165.987 0 0 0-.173-2.59 54.048 54.048 0 0 0-.115-2.114l-.653-6.11c-.09-.73.04-1.246.39-1.547.35-.3.668-.469.954-.504.286-.035.589.073.91.324.321.25.517.662.587 1.234l1.855 17.472c.07.829.011 1.401-.176 1.714-.188.313-.52.499-.996.558a1.935 1.935 0 0 1-.78-.05.878.878 0 0 1-.577-.364c-.158-.239-.296-.576-.414-1.013-.122-.469-.23-1.084-.323-1.847l-.106-.857a11.108 11.108 0 0 1-.075-1.007 8.049 8.049 0 0 1-.624 2.398 7.238 7.238 0 0 1-1.16 1.98 6.303 6.303 0 0 1-1.473 1.39c-.537.356-1.091.57-1.663.64Zm11.72-11.547a14.33 14.33 0 0 1 .135-4.417c.269-1.484.75-2.816 1.444-3.998a9.332 9.332 0 0 1 2.822-3.006c1.157-.82 2.529-1.326 4.117-1.521 1.334-.164 2.554.057 3.661.663 1.106.606 1.796 1.504 2.072 2.695l-.182-1.477-.275-2.239a65.523 65.523 0 0 0-.262-2.53l-.316-2.573c-.07-.83-.143-1.563-.221-2.198l-.188-1.524c-.187-1.525.275-2.355 1.387-2.492.445-.054.774.13.987.556.245.421.399.886.461 1.394l.164 1.334c.074.604.138 1.257.192 1.96l.234 1.905.164 1.334c.214 2.263.402 4.19.565 5.782.159 1.56.286 2.85.379 3.871a46.21 46.21 0 0 1 .244 2.388l.158 1.286.059.477.017.143.415 3.769c.101.826.165 1.608.191 2.346a10.25 10.25 0 0 1-.01 1.888c-.064.523-.204.96-.419 1.309a1.23 1.23 0 0 1-.942.599c-.35.043-.667-.176-.952-.657a18.11 18.11 0 0 1-.753-1.407c-.334.428-.769.82-1.306 1.176-.54.324-1.101.619-1.681.884-.584.232-1.172.434-1.763.603a9.22 9.22 0 0 1-1.46.324c-1.334.164-2.536.086-3.607-.234a6.948 6.948 0 0 1-2.723-1.697c-.773-.775-1.39-1.731-1.852-2.867-.462-1.137-.78-2.42-.956-3.849Zm3.032-.517c.226 1.842.928 3.223 2.104 4.143 1.173.887 2.522 1.237 4.047 1.05.921-.113 1.735-.31 2.442-.59.703-.312 1.291-.642 1.764-.99.473-.348.833-.699 1.08-1.052.279-.356.434-.666.467-.927.092-.56.101-1.141.027-1.745a32.61 32.61 0 0 0-.169-1.768l-.157-1.287a5.444 5.444 0 0 0-.692-2.091 6.312 6.312 0 0 0-1.277-1.73 5.128 5.128 0 0 0-1.73-1.093 3.701 3.701 0 0 0-1.869-.254c-1.08.133-2.025.442-2.836.929a5.973 5.973 0 0 0-2.004 1.793 6.848 6.848 0 0 0-1.089 2.552c-.205.96-.241 1.98-.108 3.06Zm22.446-.241c.355.794.864 1.393 1.526 1.795.662.403 1.372.67 2.13.803a10.75 10.75 0 0 0 2.244.159c.734-.058 1.371-.12 1.911-.186a5.756 5.756 0 0 0 1.591-.437c.52-.225 1.007-.462 1.46-.711.485-.253.924-.484 1.317-.694.426-.213.781-.338 1.067-.373 1.08-.132 1.706.5 1.877 1.898.102.825-.202 1.507-.909 2.046-.676.534-1.509.975-2.498 1.322a15.83 15.83 0 0 1-2.907.744c-.945.18-1.64.298-2.084.352-1.08.133-2.173.025-3.28-.322a9.186 9.186 0 0 1-3.057-1.656 10.98 10.98 0 0 1-2.322-2.762c-.616-1.085-1.007-2.294-1.17-3.628-.227-1.842-.211-3.553.046-5.132.29-1.583.795-2.983 1.516-4.2a8.746 8.746 0 0 1 2.876-2.965c1.193-.79 2.599-1.286 4.218-1.485.795-.097 1.64-.04 2.536.172.893.18 1.71.532 2.451 1.053.769.486 1.43 1.147 1.984 1.981.55.803.895 1.777 1.036 2.92.089.73.054 1.364-.106 1.9-.16.534-.422.89-.788 1.063l-12.665 6.343Zm-.594-3.264c.858-.363 1.817-.82 2.878-1.37l3.267-1.754c1.085-.617 2.094-1.192 3.028-1.726a89.29 89.29 0 0 1 2.349-1.352c-.523-.84-1.297-1.373-2.325-1.601-.999-.264-2.055-.328-3.167-.192-.444.055-.999.268-1.662.64-.668.34-1.332.84-1.992 1.502-.629.657-1.172 1.482-1.631 2.473-.462.96-.711 2.086-.745 3.38Zm20.836 4.502a2.81 2.81 0 0 1 .014-.678c.06-.298.14-.566.239-.804.128-.273.262-.5.401-.678.135-.21.298-.326.489-.35.127-.015.319.106.577.365.332.346.639.614.921.805.309.156.614.28.916.372.333.088.692.124 1.077.109.417-.019.895-.062 1.435-.128a10.247 10.247 0 0 0 1.882-.424 19.162 19.162 0 0 0 1.758-.651c.521-.226.944-.455 1.27-.688.358-.238.531-.404.519-.5-.039-.317-.388-.532-1.047-.645-.63-.148-1.434-.259-2.41-.332a51.685 51.685 0 0 1-3.137-.34 15.994 15.994 0 0 1-3.189-.77c-1.016-.39-1.888-.928-2.617-1.613-.7-.72-1.125-1.683-1.273-2.89-.164-1.334-.038-2.542.377-3.625a8.458 8.458 0 0 1 1.87-2.89 9.024 9.024 0 0 1 2.755-1.982c1.033-.514 2.073-.835 3.121-.964 1.493-.183 2.735.084 3.726.8.99.717 1.552 1.615 1.685 2.695.046.381.081.796.104 1.245.055.444.06.879.015 1.303-.048.393-.15.744-.306 1.054-.159.277-.43.44-.811.486-.349.043-.593-.104-.731-.442s-.24-.777-.307-1.317c-.089-.73-.436-1.187-1.039-1.371-.571-.188-1.349-.221-2.333-.1-.54.066-1.13.251-1.77.555a6.793 6.793 0 0 0-1.705 1.08c-.529.42-.97.893-1.325 1.42-.326.492-.46.976-.402 1.452.071.572.425.964 1.063 1.175.667.176 1.488.301 2.464.375.977.073 2.018.155 3.126.245a13.68 13.68 0 0 1 3.16.53c1.003.296 1.852.773 2.545 1.429.725.653 1.163 1.598 1.315 2.837.137 1.111-.095 2.107-.697 2.987a8.316 8.316 0 0 1-2.297 2.168 11.172 11.172 0 0 1-2.878 1.369c-.989.347-1.801.56-2.437.638-.476.058-1.038.079-1.685.062a5.69 5.69 0 0 1-1.922-.296 4.491 4.491 0 0 1-1.623-1.01c-.479-.489-.774-1.178-.883-2.068Zm31.68-7.613c.356.794.865 1.393 1.527 1.795.661.402 1.371.67 2.129.802.758.133 1.506.186 2.244.16a45.57 45.57 0 0 0 1.912-.186 5.75 5.75 0 0 0 1.59-.437 17.172 17.172 0 0 0 1.461-.712c.484-.253.924-.484 1.317-.693.425-.214.781-.338 1.066-.373 1.08-.133 1.706.5 1.878 1.897.101.826-.202 1.508-.91 2.046-.676.535-1.508.975-2.497 1.323a15.81 15.81 0 0 1-2.907.743c-.945.18-1.64.298-2.085.353-1.08.133-2.173.025-3.28-.323a9.184 9.184 0 0 1-3.056-1.655 10.976 10.976 0 0 1-2.322-2.762c-.617-1.085-1.007-2.294-1.171-3.628-.226-1.843-.21-3.553.047-5.132.289-1.584.794-2.983 1.515-4.2a8.75 8.75 0 0 1 2.877-2.965c1.192-.791 2.598-1.286 4.218-1.485.794-.098 1.639-.04 2.536.172a6.43 6.43 0 0 1 2.451 1.053c.769.486 1.43 1.147 1.984 1.981.55.803.895 1.776 1.035 2.92.09.73.055 1.363-.105 1.899-.16.535-.423.89-.788 1.064l-12.666 6.343Zm-.594-3.264a41.83 41.83 0 0 0 2.879-1.37l3.266-1.754c1.085-.617 2.095-1.193 3.028-1.727a89.29 89.29 0 0 1 2.349-1.352c-.522-.838-1.297-1.372-2.324-1.6-1-.265-2.056-.328-3.167-.192-.445.055-.999.268-1.663.64-.667.34-1.331.84-1.991 1.501-.629.658-1.173 1.482-1.631 2.474-.463.96-.711 2.086-.746 3.38Zm19.139-3.027c-.158-.755-.281-1.368-.372-1.84-.062-.509-.129-.92-.199-1.234l-.088-.714-.059-.477-.081-.667a29.435 29.435 0 0 1-.152-1.625c-.01-.612.001-1.177.034-1.697.064-.524.171-.972.318-1.345.148-.373.381-.579.698-.618 1.112-.136 1.787.764 2.025 2.702.042.35.071.716.086 1.102.015.385.019.803.01 1.256.141-.953.456-1.797.946-2.535a9.614 9.614 0 0 1 1.748-1.907 9.425 9.425 0 0 1 1.926-1.252c.672-.308 1.246-.491 1.722-.55 1.493-.183 2.774.014 3.845.592a7.516 7.516 0 0 1 2.668 2.429c.708 1.041 1.257 2.231 1.647 3.57a25.37 25.37 0 0 1 .831 4.008 66.6 66.6 0 0 1 .331 3.49 26.22 26.22 0 0 1 .124 3.37c-.006 1-.111 1.852-.315 2.554-.208.67-.55 1.034-1.026 1.093-.477.058-.905-.018-1.286-.23-.345-.182-.588-.846-.728-1.99a8.857 8.857 0 0 1-.056-1.637l.087-1.655c.061-.555.106-1.109.135-1.66a10.8 10.8 0 0 0-.074-1.78 21.764 21.764 0 0 0-.53-2.74 8.904 8.904 0 0 0-1.054-2.676 5.771 5.771 0 0 0-1.883-1.945c-.769-.486-1.741-.657-2.916-.513-.445.055-.939.229-1.483.521a7.255 7.255 0 0 0-1.61 1.068c-.529.42-1.032.917-1.51 1.491a9.663 9.663 0 0 0-1.129 1.832c.09.73.175 1.558.256 2.483.078.893.158 1.673.239 2.34.125 1.017.353 1.956.685 2.818.363.858.607 1.795.732 2.812.086.698.081 1.311-.016 1.84-.096.527-.494.834-1.193.92-.254.03-.512.03-.774-.002-.226-.005-.462-.089-.708-.252-.214-.167-.405-.418-.575-.751-.139-.338-.245-.808-.319-1.412l-.957-8.587ZM57.807 186.286c.098.794.201 1.506.311 2.138.142.627.263 1.225.365 1.793.138.595.26 1.193.365 1.793.142.627.26 1.322.353 2.084.078.635-.072 1.121-.45 1.458-.342.364-.703.57-1.084.617-.445.054-.806.002-1.084-.158-.277-.159-.503-.421-.677-.787a7.85 7.85 0 0 1-.366-1.406 19354.996 19354.996 0 0 0-.345-2.811l-.175-1.429a50.207 50.207 0 0 0-.257-2.483 220.086 220.086 0 0 1-.444-4.008c-.175-1.687-.394-3.74-.66-6.158-.236-2.453-.531-5.383-.885-8.789.252-.837.633-1.545 1.142-2.123a7.65 7.65 0 0 1 1.652-1.509 7.565 7.565 0 0 1 1.872-.907c.647-.24 1.241-.394 1.781-.46 1.652-.203 3.142-.144 4.47.176 1.326.289 2.466.778 3.421 1.467a7.917 7.917 0 0 1 2.299 2.571 9.11 9.11 0 0 1 1.093 3.396c.234 1.905.209 3.665-.077 5.28-.289 1.583-.81 2.985-1.563 4.206a9.41 9.41 0 0 1-2.93 2.923c-1.168.724-2.53 1.181-4.087 1.372-.825.102-1.548.126-2.167.073a42.325 42.325 0 0 1-2.095-.13l.222 1.811Zm-.607-5.729c.008.064.127.113.357.15.226.004.484.005.774.001a9.57 9.57 0 0 0 .959-.069l.715-.088a11.6 11.6 0 0 0 3.091-.815 8.299 8.299 0 0 0 2.54-1.762 6.599 6.599 0 0 0 1.566-2.611c.356-1.043.451-2.231.288-3.565-.223-1.811-1.04-3.081-2.45-3.81-1.385-.765-3.172-1.013-5.364-.744a6.48 6.48 0 0 0-1.22.295c-.434.15-.863.332-1.288.545a4.11 4.11 0 0 0-1.02.754c-.258.257-.368.545-.329.862l.541 5.592c0 .258.05.671.153 1.239.102.568.206 1.151.311 1.751.118.695.243 1.453.376 2.275Zm19.354-.684-.216-1.763c-.027-.48-.06-.879-.099-1.196l-.163-1.334-.147-1.191a45.79 45.79 0 0 1-.169-1.769c-.03-.77-.095-1.826-.195-3.168a613.87 613.87 0 0 1-.25-5.579c-.022-.707.069-1.282.272-1.726.2-.476.57-.747 1.109-.813.254-.031.546.11.874.424.325.283.546.901.663 1.853l.064.525c.02.158.027.351.023.577.133-.758.406-1.42.82-1.987a6.964 6.964 0 0 1 3.291-2.338 7.335 7.335 0 0 1 1.734-.455 8.38 8.38 0 0 1 1.447-.032 4.34 4.34 0 0 1 1.63.283c.536.16.992.459 1.368.896.404.402.653.984.746 1.746.086.699.03 1.286-.17 1.762s-.538.743-1.014.801c-.381.047-.645-.001-.792-.144a4.738 4.738 0 0 0-.457-.573c-.154-.206-.384-.372-.69-.495-.309-.156-.829-.189-1.56-.099l-.475.058c-2.287.281-3.813 1.113-4.578 2.497-.77 1.352-1.002 3.266-.698 5.744l.1.81 1.063 6.688c.02.159.013.369-.02.631a4.22 4.22 0 0 1-.197.75 2.144 2.144 0 0 1-.443.731c-.17.182-.415.293-.733.332-.73.09-1.248-.056-1.553-.438-.276-.417-.472-1.087-.585-2.008Zm15.66-9.563c-.246-2.001-.184-3.734.184-5.198.368-1.463.945-2.679 1.729-3.645.78-.999 1.702-1.757 2.767-2.275a9.717 9.717 0 0 1 3.307-1.034c2.636-.324 4.807.425 6.514 2.246 1.703 1.79 2.761 4.369 3.174 7.735.195 1.588.119 3.065-.23 4.429-.352 1.333-.882 2.527-1.591 3.581a8.99 8.99 0 0 1-2.595 2.495 7.408 7.408 0 0 1-3.147 1.16c-1.206.148-2.389-.029-3.547-.532a11.805 11.805 0 0 1-3.12-2.18 13.195 13.195 0 0 1-2.322-3.148c-.6-1.216-.975-2.428-1.123-3.634Zm9.377 5.474a6.266 6.266 0 0 0 2.234-.71 6.165 6.165 0 0 0 1.837-1.58 6.173 6.173 0 0 0 1.172-2.271c.248-.869.306-1.843.173-2.923-.121-.985-.359-1.875-.714-2.669-.356-.795-.791-1.451-1.306-1.968a4.643 4.643 0 0 0-1.742-1.188 4.151 4.151 0 0 0-2.011-.237 8.037 8.037 0 0 0-2.473.739 6.659 6.659 0 0 0-2.093 1.466c-.604.59-1.078 1.325-1.422 2.206-.315.844-.408 1.791-.28 2.839a7.41 7.41 0 0 0 .793 2.514 8.29 8.29 0 0 0 1.561 2.081 6.945 6.945 0 0 0 2.057 1.392c.746.295 1.484.398 2.214.309Zm15.876-3.159c-.198-1.62-.379-3.226-.543-4.818a237.016 237.016 0 0 0-.483-5.115l-.134-1.096-1.513.283-1.477.181c-.413.051-.79-.129-1.13-.538a2.94 2.94 0 0 1-.562-1.43 2.613 2.613 0 0 1 .253-1.482c.259-.516.579-.797.96-.843l3.109-.285.19-.024a47.75 47.75 0 0 1 .231-4.816c.158-1.599.465-3.039.92-4.32.452-1.313 1.059-2.403 1.823-3.271.764-.867 1.734-1.373 2.909-1.517.286-.036.693-.005 1.22.091.56.093 1.097.269 1.613.528a4.953 4.953 0 0 1 1.468.932c.432.366.679.803.742 1.311.019.159.028.368.028.626.027.222.023.448-.013.678-.037.23-.109.433-.216.607a.472.472 0 0 1-.4.291 2.335 2.335 0 0 1-.976-.074l-.916-.371a7.905 7.905 0 0 0-.958-.317 2.321 2.321 0 0 0-1.077-.11c-.858.105-1.537.479-2.039 1.121-.47.638-.826 1.407-1.071 2.308a17.14 17.14 0 0 0-.411 2.952 24.643 24.643 0 0 0 .077 2.989l5.193-.638c.187-.055.391-.096.614-.124.218-.059.422-.1.613-.123.318-.039.635.051.952.27.317.219.526.741.628 1.567.07.571.045 1.026-.075 1.363a1.601 1.601 0 0 1-.442.731 1.526 1.526 0 0 1-.638.32 4.084 4.084 0 0 1-.566.118c-.766.062-1.421.11-1.965.145-.543.034-1.024.061-1.441.08-.385.015-.736.042-1.053.081l-.906.111-.476.059c.151 1.496.287 2.995.407 4.496.116 1.468.263 3.062.442 4.781.043.35.202.991.478 1.924.276.934.482 1.956.618 3.068.082.667.03 1.157-.158 1.47a1.046 1.046 0 0 1-.805.534c-.508.063-.928.05-1.262-.038-.329-.056-.61-.248-.844-.574-.205-.361-.379-.856-.52-1.483-.146-.659-.285-1.529-.418-2.609Zm12.712-6.977c-.246-2.001-.184-3.733.184-5.197s.944-2.679 1.728-3.646c.781-.998 1.703-1.757 2.768-2.274a9.719 9.719 0 0 1 3.307-1.035c2.636-.324 4.807.425 6.514 2.247 1.703 1.79 2.761 4.368 3.174 7.735.195 1.588.119 3.064-.23 4.429-.352 1.333-.882 2.526-1.591 3.58a8.955 8.955 0 0 1-2.596 2.495 7.386 7.386 0 0 1-3.146 1.16c-1.207.149-2.389-.029-3.547-.531a11.836 11.836 0 0 1-3.121-2.18 13.21 13.21 0 0 1-2.321-3.149c-.6-1.216-.975-2.427-1.123-3.634Zm9.377 5.474a6.246 6.246 0 0 0 2.234-.71 6.174 6.174 0 0 0 1.837-1.579 6.177 6.177 0 0 0 1.172-2.272c.248-.869.306-1.843.173-2.923-.121-.984-.359-1.874-.714-2.669-.356-.794-.791-1.45-1.306-1.967-.519-.549-1.099-.945-1.742-1.189a4.163 4.163 0 0 0-2.011-.236 8.013 8.013 0 0 0-2.473.738 6.702 6.702 0 0 0-2.093 1.466c-.604.591-1.078 1.326-1.422 2.206-.315.845-.408 1.791-.28 2.839.106.858.37 1.696.793 2.515.419.786.939 1.48 1.561 2.081a6.959 6.959 0 0 0 2.057 1.392c.745.295 1.483.398 2.214.308Zm12.591-9.042c-.157-.754-.281-1.368-.371-1.84a13.183 13.183 0 0 0-.2-1.233l-.088-.715-.058-.476-.082-.667a29.427 29.427 0 0 1-.151-1.626c-.011-.611 0-1.177.033-1.697.065-.523.171-.972.319-1.344.147-.373.38-.579.698-.618 1.111-.137 1.786.764 2.024 2.701.043.35.072.717.087 1.102.015.385.018.804.009 1.256.141-.952.456-1.797.946-2.534a9.638 9.638 0 0 1 1.749-1.907 9.369 9.369 0 0 1 1.926-1.252c.671-.308 1.245-.492 1.721-.55 1.493-.184 2.775.014 3.845.592a7.487 7.487 0 0 1 2.668 2.429c.708 1.041 1.257 2.231 1.647 3.569.39 1.339.667 2.675.831 4.009.137 1.112.247 2.275.332 3.49.116 1.21.157 2.334.123 3.37-.006 1-.111 1.851-.315 2.553-.208.67-.55 1.035-1.026 1.093-.477.059-.905-.017-1.286-.229-.345-.183-.587-.846-.728-1.99a8.942 8.942 0 0 1-.056-1.637l.087-1.655c.061-.556.106-1.109.135-1.661.025-.583.001-1.177-.074-1.78a21.74 21.74 0 0 0-.529-2.74 8.96 8.96 0 0 0-1.054-2.676 5.788 5.788 0 0 0-1.883-1.945c-.769-.485-1.741-.656-2.917-.512-.444.055-.939.228-1.483.521a7.228 7.228 0 0 0-1.61 1.068 10.19 10.19 0 0 0-1.509 1.491 9.657 9.657 0 0 0-1.13 1.831c.09.731.175 1.558.257 2.483.077.894.157 1.674.239 2.341a11.88 11.88 0 0 0 .684 2.817c.364.858.608 1.796.732 2.812.086.699.081 1.312-.016 1.84-.096.527-.494.834-1.192.92a3.133 3.133 0 0 1-.774-.002c-.226-.004-.462-.088-.708-.251-.214-.168-.406-.418-.576-.752-.138-.337-.244-.808-.318-1.411l-.958-8.588Zm21.3-.971a14.328 14.328 0 0 1 .135-4.417c.269-1.484.75-2.817 1.443-3.998a9.33 9.33 0 0 1 2.823-3.006c1.157-.819 2.529-1.326 4.117-1.521 1.334-.164 2.554.057 3.66.662 1.106.606 1.797 1.505 2.072 2.696l-.181-1.477-.275-2.239a67.59 67.59 0 0 0-.262-2.531l-.316-2.573a58.936 58.936 0 0 0-.222-2.197l-.187-1.525c-.187-1.524.275-2.355 1.387-2.491.445-.055.774.131.987.556.245.421.399.886.461 1.394l.164 1.334c.074.603.138 1.256.192 1.959l.234 1.906.164 1.334c.213 2.263.402 4.19.565 5.782.159 1.56.285 2.85.379 3.871.124 1.016.206 1.812.244 2.388l.158 1.286.059.476.017.143.415 3.77c.101.826.165 1.608.191 2.346.054.703.051 1.332-.01 1.887-.065.524-.204.96-.419 1.309-.216.349-.53.549-.942.6-.35.042-.667-.177-.952-.657a18.11 18.11 0 0 1-.753-1.407c-.334.428-.769.82-1.306 1.176a16.88 16.88 0 0 1-1.681.883c-.584.233-1.172.434-1.764.604a9.323 9.323 0 0 1-1.459.324c-1.334.164-2.536.086-3.607-.234a6.96 6.96 0 0 1-2.723-1.697c-.773-.776-1.39-1.732-1.852-2.868-.462-1.136-.78-2.419-.956-3.848Zm3.032-.517c.226 1.842.927 3.223 2.104 4.142 1.173.888 2.522 1.238 4.046 1.051.922-.113 1.736-.31 2.443-.59.703-.312 1.291-.642 1.764-.991.473-.348.833-.698 1.08-1.051.279-.357.434-.666.467-.928a6.114 6.114 0 0 0 .027-1.744 32.694 32.694 0 0 0-.169-1.769l-.158-1.286a5.412 5.412 0 0 0-.692-2.091 6.315 6.315 0 0 0-1.276-1.73 5.15 5.15 0 0 0-1.73-1.093 3.707 3.707 0 0 0-1.869-.254c-1.08.133-2.025.442-2.836.928a5.97 5.97 0 0 0-2.004 1.794 6.85 6.85 0 0 0-1.089 2.552c-.205.96-.241 1.98-.108 3.06Zm22.446-.241c.355.794.864 1.393 1.526 1.795.662.402 1.372.67 2.129.802.758.133 1.506.186 2.245.16.734-.058 1.371-.12 1.911-.186a5.794 5.794 0 0 0 1.591-.437c.52-.225 1.007-.463 1.46-.712.485-.253.924-.484 1.317-.693.425-.214.781-.338 1.067-.373 1.08-.133 1.705.5 1.877 1.897.101.826-.202 1.508-.909 2.046-.676.535-1.509.975-2.498 1.323-.957.343-1.926.591-2.907.743-.945.181-1.64.298-2.084.353-1.08.133-2.174.025-3.28-.323a9.166 9.166 0 0 1-3.057-1.655 10.996 10.996 0 0 1-2.322-2.762c-.616-1.085-1.007-2.294-1.171-3.628-.226-1.843-.21-3.553.047-5.132.29-1.583.795-2.983 1.516-4.2a8.743 8.743 0 0 1 2.876-2.965c1.192-.791 2.599-1.286 4.218-1.485.794-.098 1.64-.04 2.536.172a6.44 6.44 0 0 1 2.451 1.053c.769.486 1.43 1.146 1.984 1.981.55.803.895 1.776 1.036 2.92.089.73.054 1.363-.106 1.899-.16.535-.422.89-.788 1.064l-12.665 6.343Zm-.595-3.264c.859-.364 1.818-.82 2.879-1.369l3.266-1.756c1.085-.616 2.095-1.192 3.029-1.725a86.288 86.288 0 0 1 2.348-1.353c-.522-.838-1.296-1.372-2.324-1.6-1-.265-2.055-.328-3.167-.192-.445.055-.999.268-1.662.639-.668.34-1.332.841-1.992 1.502-.629.658-1.172 1.482-1.631 2.474-.462.959-.711 2.086-.746 3.38Zm27.23 7.731c-1.62.199-2.971-.038-4.053-.712a8.31 8.31 0 0 1-2.56-2.732 13.522 13.522 0 0 1-1.457-3.593 38.394 38.394 0 0 1-.623-3.502 60.02 60.02 0 0 1-.302-3.252 25.054 25.054 0 0 1 .072-3.346c.094-1.075.273-1.983.536-2.725.295-.746.713-1.152 1.253-1.218.445-.055.764.051.958.318.226.262.368.632.426 1.108.059.476.063 1.04.014 1.691-.021.615-.052 1.28-.093 1.994-.042.715-.079 1.461-.112 2.239-.002.774.044 1.542.137 2.304.075.603.214 1.344.418 2.222.205.877.501 1.711.888 2.502a6.357 6.357 0 0 0 1.496 1.944c.61.506 1.376.702 2.297.589.73-.09 1.364-.313 1.901-.669a7.517 7.517 0 0 0 1.479-1.342 8.536 8.536 0 0 0 1.046-1.725c.311-.618.608-1.219.891-1.802a166.033 166.033 0 0 0-.173-2.59 54.101 54.101 0 0 0-.115-2.114l-.653-6.11c-.09-.73.04-1.246.39-1.547.35-.3.668-.468.954-.504.286-.035.589.073.91.324.321.251.517.662.587 1.234l1.855 17.472c.07.829.011 1.401-.176 1.714-.188.313-.52.499-.996.557a1.918 1.918 0 0 1-.78-.049.878.878 0 0 1-.577-.364c-.158-.239-.296-.576-.414-1.013-.122-.469-.23-1.084-.323-1.847l-.106-.857a11.108 11.108 0 0 1-.075-1.007 8.049 8.049 0 0 1-.624 2.398 7.238 7.238 0 0 1-1.16 1.98 6.303 6.303 0 0 1-1.473 1.39c-.537.356-1.091.57-1.663.64Zm13.694-4.922-.216-1.763c-.027-.48-.06-.879-.099-1.196l-.163-1.334-.147-1.192a47.293 47.293 0 0 1-.169-1.768c-.03-.77-.095-1.826-.195-3.168a598.16 598.16 0 0 1-.25-5.579c-.022-.707.068-1.282.272-1.726.199-.476.569-.747 1.109-.813.254-.031.546.11.874.424.325.283.546.901.663 1.853l.064.524c.02.159.027.352.023.578.133-.758.406-1.42.82-1.987a6.978 6.978 0 0 1 3.291-2.338 7.342 7.342 0 0 1 1.734-.455 8.473 8.473 0 0 1 1.447-.033 4.365 4.365 0 0 1 1.631.284c.535.16.991.458 1.367.896.404.402.653.984.746 1.746.086.699.029 1.286-.17 1.762-.2.476-.538.743-1.014.801-.381.047-.645-.001-.792-.144a4.677 4.677 0 0 0-.457-.573c-.154-.206-.384-.372-.689-.495-.31-.156-.83-.189-1.56-.099l-.476.058c-2.287.281-3.813 1.113-4.578 2.497-.769 1.352-1.002 3.266-.698 5.744l.1.81 1.063 6.688c.019.159.013.369-.019.631a4.37 4.37 0 0 1-.198.75 2.148 2.148 0 0 1-.443.731c-.171.182-.415.293-.733.332-.73.09-1.248-.056-1.553-.438-.277-.417-.472-1.087-.585-2.008Z"/>
  <defs>
    <filter id="a" width="284.797" height="208.964" x=".46" y="24.522" color-interpolation-filters="sRGB" filterUnits="userSpaceOnUse">
      <feFlood flood-opacity="0" result="BackgroundImageFix"/>
      <feColorMatrix in="SourceAlpha" result="hardAlpha" values="0 0 0 0 0 0 0 0 0 0 0 0 0 0 0 0 0 0 127 0"/>
      <feOffset dy="4"/>
      <feGaussianBlur stdDeviation="2"/>
      <feComposite in2="hardAlpha" operator="out"/>
      <feColorMatrix values="0 0 0 0 0 0 0 0 0 0 0 0 0 0 0 0 0 0 0.25 0"/>
      <feBlend in2="BackgroundImageFix" result="effect1_dropShadow_78_101"/>
      <feBlend in="SourceGraphic" in2="effect1_dropShadow_78_101" result="shape"/>
    </filter>
  </defs>
</svg>
