<svg xmlns="http://www.w3.org/2000/svg" width="281" height="246" fill="none" viewBox="0 0 281 246">
  <path fill="url(#a)" d="M1.944 132.009C-8.7 75.769 28.55 21.639 84.88 11.487l27.903-5.028 44.983-5.218c53.137-6.164 102.148 29.375 112.804 81.797l9.215 45.334.238 3.13c4.408 58.009-40.067 108.156-98.188 110.707l-67.085 2.944c-48.744 2.14-92.302-30.215-104.335-77.499l-6.726-26.429-1.744-9.216Z"/>
  <path fill="#fff" d="M195.319 41.642a4.816 4.816 0 1 1 9.629.16l-3.317 99.754a3.157 3.157 0 0 1-6.312-.105V41.642Zm18.416-10.041a.6.6 0 0 1 .633-.568c5.794.32 10.175 5.39 9.65 11.168l-8.756 96.469a6.151 6.151 0 0 1-6.469 5.588 1.03 1.03 0 0 1-.972-1.083l5.914-111.574Zm18.42 29.693c.174-2.897 4.309-3.23 4.95-.398l.291 1.287c.518 2.288 3.774 2.299 4.302.014.204-.883 1.513-.686 1.45.217l-5.361 77.766a4.87 4.87 0 0 1-4.859 4.535 4.88 4.88 0 0 1-4.873-5.114l2.456-51.007 1.644-27.3Zm-2.71-20.83a8.684 8.684 0 0 1 11.453-4.699c4.475 1.902 6.602 7.088 4.752 11.584l-3.607 8.765a1.902 1.902 0 0 1-2.508 1.03 1.955 1.955 0 0 1-1.131-1.338l-.121-.5a2.976 2.976 0 0 0-1.724-2.04l-2.637-1.12c-4.364-1.854-6.44-6.912-4.635-11.298l.158-.384ZM122.868 67.77c.754-4.628 6.827-5.875 9.343-1.918.547.86.824 1.862.795 2.88l-1.403 50.641c-.158 5.712 4.429 10.428 10.142 10.428.566 0 1.131.047 1.688.141l1.327.224c14.007 2.363 27.348-6.863 30.079-20.803l9.314-47.529c.064-.324.183-.635.354-.918 1.534-2.545 5.453-1.313 5.255 1.652l-4.35 65.114c-.654 9.799-8.793 17.412-18.614 17.412h-28.144c-14.877 0-26.212-13.33-23.819-28.015l8.033-49.31ZM45.37 78.98a33.432 33.432 0 0 1 37.47-10.39l1.205.44a39.016 39.016 0 0 1 12.372 7.341l.602.529a34.691 34.691 0 0 1 4.919 5.334l1.373 1.844a24.119 24.119 0 0 1 4.238 9.347l.76 3.546c2.251 10.501 2.933 21.415 2.048 32.117-.628 7.602-5.681 14.23-12.881 16.749l-1.254.439c-.985.344-1.996.61-3.023.794l-4.638.832c-4.891.877-7.422 6.348-4.924 10.643a7.16 7.16 0 0 0 2.976 2.799l6.531 3.278a31.696 31.696 0 0 1 15.654 17.732l1.326 3.738a31.582 31.582 0 0 1 1.819 10.564c0 12.239-7.131 23.406-18.205 28.618a31.841 31.841 0 0 1-9.395 2.758l-4.797.63c-14.767 1.939-28.84-6.844-33.587-20.961a31.152 31.152 0 0 1-1.625-9.929v-7.344c0-1.894.232-3.781.692-5.619l.221-.882a21.379 21.379 0 0 1 12.908-14.704l5.993-2.36a6.942 6.942 0 0 0 .314-12.787l-.538-.243-8.523-4.213a41.483 41.483 0 0 1-15.163-12.785l-1.431-1.967a31.873 31.873 0 0 1-5.816-14.52 52.399 52.399 0 0 1 11.18-39.885l1.2-1.483Z"/>
  <path fill="#ACF375" d="M49.57 98.659a18.47 18.47 0 0 1 14.165-14.406l8.742-1.906a26.027 26.027 0 0 1 6.041-.592 25.922 25.922 0 0 1 24.825 20.319l.648 2.924c.47 2.119.707 4.285.707 6.457v9.849a16.478 16.478 0 0 1-12.88 15.009l-7.475 1.652a26.52 26.52 0 0 1-6.84.604l-5.934-.247a18.58 18.58 0 0 1-18.077-14.251l-2.528-10.535-1.454-7.934a18.41 18.41 0 0 1 .06-6.943Z"/>
  <path fill="#8AFF53" d="M66.793 214.794c-8.262-1.053-14.705-7.707-15.5-16.004l-.628-6.563a13.182 13.182 0 0 1 1.981-8.308 13.134 13.134 0 0 1 12.767-5.999l5.409.69c9.972 1.271 17.057 10.39 15.825 20.367l-.053.432c-1.203 9.738-10.068 16.626-19.801 15.385Z"/>
  <defs>
    <radialGradient id="a" cx="0" cy="0" r="1" gradientTransform="matrix(353.45838 6.70652 -7.43862 392.04244 139.635 112.947)" gradientUnits="userSpaceOnUse">
      <stop offset=".109" stop-color="#ACF375"/>
      <stop offset=".362" stop-color="#6AFF24"/>
      <stop offset=".661" stop-color="#4FFD60"/>
      <stop offset=".75" stop-color="#4FFD60"/>
      <stop offset=".922" stop-color="#4FFD60"/>
      <stop offset="1" stop-color="#75FF83"/>
    </radialGradient>
  </defs>
</svg>
